G75*
%MOIN*%
%OFA0B0*%
%FSLAX25Y25*%
%IPPOS*%
%LPD*%
%AMOC8*
5,1,8,0,0,1.08239X$1,22.5*
%
%ADD10C,0.00000*%
%ADD11OC8,0.05200*%
%ADD12C,0.06000*%
%ADD13C,0.01600*%
%ADD14C,0.00500*%
D10*
X0007700Y0006850D02*
X0007700Y0327051D01*
X0237621Y0327051D01*
X0237615Y0327050D02*
X0237615Y0006845D01*
X0237621Y0006850D02*
X0007700Y0006850D01*
X0013369Y0016850D02*
X0013371Y0016981D01*
X0013377Y0017113D01*
X0013387Y0017244D01*
X0013401Y0017375D01*
X0013419Y0017505D01*
X0013441Y0017634D01*
X0013466Y0017763D01*
X0013496Y0017891D01*
X0013530Y0018018D01*
X0013567Y0018145D01*
X0013608Y0018269D01*
X0013653Y0018393D01*
X0013702Y0018515D01*
X0013754Y0018636D01*
X0013810Y0018754D01*
X0013870Y0018872D01*
X0013933Y0018987D01*
X0014000Y0019100D01*
X0014070Y0019212D01*
X0014143Y0019321D01*
X0014219Y0019427D01*
X0014299Y0019532D01*
X0014382Y0019634D01*
X0014468Y0019733D01*
X0014557Y0019830D01*
X0014649Y0019924D01*
X0014744Y0020015D01*
X0014841Y0020104D01*
X0014941Y0020189D01*
X0015044Y0020271D01*
X0015149Y0020350D01*
X0015256Y0020426D01*
X0015366Y0020498D01*
X0015478Y0020567D01*
X0015592Y0020633D01*
X0015707Y0020695D01*
X0015825Y0020754D01*
X0015944Y0020809D01*
X0016065Y0020861D01*
X0016188Y0020908D01*
X0016312Y0020952D01*
X0016437Y0020993D01*
X0016563Y0021029D01*
X0016691Y0021062D01*
X0016819Y0021090D01*
X0016948Y0021115D01*
X0017078Y0021136D01*
X0017208Y0021153D01*
X0017339Y0021166D01*
X0017470Y0021175D01*
X0017601Y0021180D01*
X0017733Y0021181D01*
X0017864Y0021178D01*
X0017996Y0021171D01*
X0018127Y0021160D01*
X0018257Y0021145D01*
X0018387Y0021126D01*
X0018517Y0021103D01*
X0018645Y0021077D01*
X0018773Y0021046D01*
X0018900Y0021011D01*
X0019026Y0020973D01*
X0019150Y0020931D01*
X0019274Y0020885D01*
X0019395Y0020835D01*
X0019515Y0020782D01*
X0019634Y0020725D01*
X0019751Y0020665D01*
X0019865Y0020601D01*
X0019978Y0020533D01*
X0020089Y0020462D01*
X0020198Y0020388D01*
X0020304Y0020311D01*
X0020408Y0020230D01*
X0020509Y0020147D01*
X0020608Y0020060D01*
X0020704Y0019970D01*
X0020797Y0019877D01*
X0020888Y0019782D01*
X0020975Y0019684D01*
X0021060Y0019583D01*
X0021141Y0019480D01*
X0021219Y0019374D01*
X0021294Y0019266D01*
X0021366Y0019156D01*
X0021434Y0019044D01*
X0021499Y0018930D01*
X0021560Y0018813D01*
X0021618Y0018695D01*
X0021672Y0018575D01*
X0021723Y0018454D01*
X0021770Y0018331D01*
X0021813Y0018207D01*
X0021852Y0018082D01*
X0021888Y0017955D01*
X0021919Y0017827D01*
X0021947Y0017699D01*
X0021971Y0017570D01*
X0021991Y0017440D01*
X0022007Y0017309D01*
X0022019Y0017178D01*
X0022027Y0017047D01*
X0022031Y0016916D01*
X0022031Y0016784D01*
X0022027Y0016653D01*
X0022019Y0016522D01*
X0022007Y0016391D01*
X0021991Y0016260D01*
X0021971Y0016130D01*
X0021947Y0016001D01*
X0021919Y0015873D01*
X0021888Y0015745D01*
X0021852Y0015618D01*
X0021813Y0015493D01*
X0021770Y0015369D01*
X0021723Y0015246D01*
X0021672Y0015125D01*
X0021618Y0015005D01*
X0021560Y0014887D01*
X0021499Y0014770D01*
X0021434Y0014656D01*
X0021366Y0014544D01*
X0021294Y0014434D01*
X0021219Y0014326D01*
X0021141Y0014220D01*
X0021060Y0014117D01*
X0020975Y0014016D01*
X0020888Y0013918D01*
X0020797Y0013823D01*
X0020704Y0013730D01*
X0020608Y0013640D01*
X0020509Y0013553D01*
X0020408Y0013470D01*
X0020304Y0013389D01*
X0020198Y0013312D01*
X0020089Y0013238D01*
X0019978Y0013167D01*
X0019866Y0013099D01*
X0019751Y0013035D01*
X0019634Y0012975D01*
X0019515Y0012918D01*
X0019395Y0012865D01*
X0019274Y0012815D01*
X0019150Y0012769D01*
X0019026Y0012727D01*
X0018900Y0012689D01*
X0018773Y0012654D01*
X0018645Y0012623D01*
X0018517Y0012597D01*
X0018387Y0012574D01*
X0018257Y0012555D01*
X0018127Y0012540D01*
X0017996Y0012529D01*
X0017864Y0012522D01*
X0017733Y0012519D01*
X0017601Y0012520D01*
X0017470Y0012525D01*
X0017339Y0012534D01*
X0017208Y0012547D01*
X0017078Y0012564D01*
X0016948Y0012585D01*
X0016819Y0012610D01*
X0016691Y0012638D01*
X0016563Y0012671D01*
X0016437Y0012707D01*
X0016312Y0012748D01*
X0016188Y0012792D01*
X0016065Y0012839D01*
X0015944Y0012891D01*
X0015825Y0012946D01*
X0015707Y0013005D01*
X0015592Y0013067D01*
X0015478Y0013133D01*
X0015366Y0013202D01*
X0015256Y0013274D01*
X0015149Y0013350D01*
X0015044Y0013429D01*
X0014941Y0013511D01*
X0014841Y0013596D01*
X0014744Y0013685D01*
X0014649Y0013776D01*
X0014557Y0013870D01*
X0014468Y0013967D01*
X0014382Y0014066D01*
X0014299Y0014168D01*
X0014219Y0014273D01*
X0014143Y0014379D01*
X0014070Y0014488D01*
X0014000Y0014600D01*
X0013933Y0014713D01*
X0013870Y0014828D01*
X0013810Y0014946D01*
X0013754Y0015064D01*
X0013702Y0015185D01*
X0013653Y0015307D01*
X0013608Y0015431D01*
X0013567Y0015555D01*
X0013530Y0015682D01*
X0013496Y0015809D01*
X0013466Y0015937D01*
X0013441Y0016066D01*
X0013419Y0016195D01*
X0013401Y0016325D01*
X0013387Y0016456D01*
X0013377Y0016587D01*
X0013371Y0016719D01*
X0013369Y0016850D01*
X0223369Y0016850D02*
X0223371Y0016981D01*
X0223377Y0017113D01*
X0223387Y0017244D01*
X0223401Y0017375D01*
X0223419Y0017505D01*
X0223441Y0017634D01*
X0223466Y0017763D01*
X0223496Y0017891D01*
X0223530Y0018018D01*
X0223567Y0018145D01*
X0223608Y0018269D01*
X0223653Y0018393D01*
X0223702Y0018515D01*
X0223754Y0018636D01*
X0223810Y0018754D01*
X0223870Y0018872D01*
X0223933Y0018987D01*
X0224000Y0019100D01*
X0224070Y0019212D01*
X0224143Y0019321D01*
X0224219Y0019427D01*
X0224299Y0019532D01*
X0224382Y0019634D01*
X0224468Y0019733D01*
X0224557Y0019830D01*
X0224649Y0019924D01*
X0224744Y0020015D01*
X0224841Y0020104D01*
X0224941Y0020189D01*
X0225044Y0020271D01*
X0225149Y0020350D01*
X0225256Y0020426D01*
X0225366Y0020498D01*
X0225478Y0020567D01*
X0225592Y0020633D01*
X0225707Y0020695D01*
X0225825Y0020754D01*
X0225944Y0020809D01*
X0226065Y0020861D01*
X0226188Y0020908D01*
X0226312Y0020952D01*
X0226437Y0020993D01*
X0226563Y0021029D01*
X0226691Y0021062D01*
X0226819Y0021090D01*
X0226948Y0021115D01*
X0227078Y0021136D01*
X0227208Y0021153D01*
X0227339Y0021166D01*
X0227470Y0021175D01*
X0227601Y0021180D01*
X0227733Y0021181D01*
X0227864Y0021178D01*
X0227996Y0021171D01*
X0228127Y0021160D01*
X0228257Y0021145D01*
X0228387Y0021126D01*
X0228517Y0021103D01*
X0228645Y0021077D01*
X0228773Y0021046D01*
X0228900Y0021011D01*
X0229026Y0020973D01*
X0229150Y0020931D01*
X0229274Y0020885D01*
X0229395Y0020835D01*
X0229515Y0020782D01*
X0229634Y0020725D01*
X0229751Y0020665D01*
X0229865Y0020601D01*
X0229978Y0020533D01*
X0230089Y0020462D01*
X0230198Y0020388D01*
X0230304Y0020311D01*
X0230408Y0020230D01*
X0230509Y0020147D01*
X0230608Y0020060D01*
X0230704Y0019970D01*
X0230797Y0019877D01*
X0230888Y0019782D01*
X0230975Y0019684D01*
X0231060Y0019583D01*
X0231141Y0019480D01*
X0231219Y0019374D01*
X0231294Y0019266D01*
X0231366Y0019156D01*
X0231434Y0019044D01*
X0231499Y0018930D01*
X0231560Y0018813D01*
X0231618Y0018695D01*
X0231672Y0018575D01*
X0231723Y0018454D01*
X0231770Y0018331D01*
X0231813Y0018207D01*
X0231852Y0018082D01*
X0231888Y0017955D01*
X0231919Y0017827D01*
X0231947Y0017699D01*
X0231971Y0017570D01*
X0231991Y0017440D01*
X0232007Y0017309D01*
X0232019Y0017178D01*
X0232027Y0017047D01*
X0232031Y0016916D01*
X0232031Y0016784D01*
X0232027Y0016653D01*
X0232019Y0016522D01*
X0232007Y0016391D01*
X0231991Y0016260D01*
X0231971Y0016130D01*
X0231947Y0016001D01*
X0231919Y0015873D01*
X0231888Y0015745D01*
X0231852Y0015618D01*
X0231813Y0015493D01*
X0231770Y0015369D01*
X0231723Y0015246D01*
X0231672Y0015125D01*
X0231618Y0015005D01*
X0231560Y0014887D01*
X0231499Y0014770D01*
X0231434Y0014656D01*
X0231366Y0014544D01*
X0231294Y0014434D01*
X0231219Y0014326D01*
X0231141Y0014220D01*
X0231060Y0014117D01*
X0230975Y0014016D01*
X0230888Y0013918D01*
X0230797Y0013823D01*
X0230704Y0013730D01*
X0230608Y0013640D01*
X0230509Y0013553D01*
X0230408Y0013470D01*
X0230304Y0013389D01*
X0230198Y0013312D01*
X0230089Y0013238D01*
X0229978Y0013167D01*
X0229866Y0013099D01*
X0229751Y0013035D01*
X0229634Y0012975D01*
X0229515Y0012918D01*
X0229395Y0012865D01*
X0229274Y0012815D01*
X0229150Y0012769D01*
X0229026Y0012727D01*
X0228900Y0012689D01*
X0228773Y0012654D01*
X0228645Y0012623D01*
X0228517Y0012597D01*
X0228387Y0012574D01*
X0228257Y0012555D01*
X0228127Y0012540D01*
X0227996Y0012529D01*
X0227864Y0012522D01*
X0227733Y0012519D01*
X0227601Y0012520D01*
X0227470Y0012525D01*
X0227339Y0012534D01*
X0227208Y0012547D01*
X0227078Y0012564D01*
X0226948Y0012585D01*
X0226819Y0012610D01*
X0226691Y0012638D01*
X0226563Y0012671D01*
X0226437Y0012707D01*
X0226312Y0012748D01*
X0226188Y0012792D01*
X0226065Y0012839D01*
X0225944Y0012891D01*
X0225825Y0012946D01*
X0225707Y0013005D01*
X0225592Y0013067D01*
X0225478Y0013133D01*
X0225366Y0013202D01*
X0225256Y0013274D01*
X0225149Y0013350D01*
X0225044Y0013429D01*
X0224941Y0013511D01*
X0224841Y0013596D01*
X0224744Y0013685D01*
X0224649Y0013776D01*
X0224557Y0013870D01*
X0224468Y0013967D01*
X0224382Y0014066D01*
X0224299Y0014168D01*
X0224219Y0014273D01*
X0224143Y0014379D01*
X0224070Y0014488D01*
X0224000Y0014600D01*
X0223933Y0014713D01*
X0223870Y0014828D01*
X0223810Y0014946D01*
X0223754Y0015064D01*
X0223702Y0015185D01*
X0223653Y0015307D01*
X0223608Y0015431D01*
X0223567Y0015555D01*
X0223530Y0015682D01*
X0223496Y0015809D01*
X0223466Y0015937D01*
X0223441Y0016066D01*
X0223419Y0016195D01*
X0223401Y0016325D01*
X0223387Y0016456D01*
X0223377Y0016587D01*
X0223371Y0016719D01*
X0223369Y0016850D01*
X0223369Y0316850D02*
X0223371Y0316981D01*
X0223377Y0317113D01*
X0223387Y0317244D01*
X0223401Y0317375D01*
X0223419Y0317505D01*
X0223441Y0317634D01*
X0223466Y0317763D01*
X0223496Y0317891D01*
X0223530Y0318018D01*
X0223567Y0318145D01*
X0223608Y0318269D01*
X0223653Y0318393D01*
X0223702Y0318515D01*
X0223754Y0318636D01*
X0223810Y0318754D01*
X0223870Y0318872D01*
X0223933Y0318987D01*
X0224000Y0319100D01*
X0224070Y0319212D01*
X0224143Y0319321D01*
X0224219Y0319427D01*
X0224299Y0319532D01*
X0224382Y0319634D01*
X0224468Y0319733D01*
X0224557Y0319830D01*
X0224649Y0319924D01*
X0224744Y0320015D01*
X0224841Y0320104D01*
X0224941Y0320189D01*
X0225044Y0320271D01*
X0225149Y0320350D01*
X0225256Y0320426D01*
X0225366Y0320498D01*
X0225478Y0320567D01*
X0225592Y0320633D01*
X0225707Y0320695D01*
X0225825Y0320754D01*
X0225944Y0320809D01*
X0226065Y0320861D01*
X0226188Y0320908D01*
X0226312Y0320952D01*
X0226437Y0320993D01*
X0226563Y0321029D01*
X0226691Y0321062D01*
X0226819Y0321090D01*
X0226948Y0321115D01*
X0227078Y0321136D01*
X0227208Y0321153D01*
X0227339Y0321166D01*
X0227470Y0321175D01*
X0227601Y0321180D01*
X0227733Y0321181D01*
X0227864Y0321178D01*
X0227996Y0321171D01*
X0228127Y0321160D01*
X0228257Y0321145D01*
X0228387Y0321126D01*
X0228517Y0321103D01*
X0228645Y0321077D01*
X0228773Y0321046D01*
X0228900Y0321011D01*
X0229026Y0320973D01*
X0229150Y0320931D01*
X0229274Y0320885D01*
X0229395Y0320835D01*
X0229515Y0320782D01*
X0229634Y0320725D01*
X0229751Y0320665D01*
X0229865Y0320601D01*
X0229978Y0320533D01*
X0230089Y0320462D01*
X0230198Y0320388D01*
X0230304Y0320311D01*
X0230408Y0320230D01*
X0230509Y0320147D01*
X0230608Y0320060D01*
X0230704Y0319970D01*
X0230797Y0319877D01*
X0230888Y0319782D01*
X0230975Y0319684D01*
X0231060Y0319583D01*
X0231141Y0319480D01*
X0231219Y0319374D01*
X0231294Y0319266D01*
X0231366Y0319156D01*
X0231434Y0319044D01*
X0231499Y0318930D01*
X0231560Y0318813D01*
X0231618Y0318695D01*
X0231672Y0318575D01*
X0231723Y0318454D01*
X0231770Y0318331D01*
X0231813Y0318207D01*
X0231852Y0318082D01*
X0231888Y0317955D01*
X0231919Y0317827D01*
X0231947Y0317699D01*
X0231971Y0317570D01*
X0231991Y0317440D01*
X0232007Y0317309D01*
X0232019Y0317178D01*
X0232027Y0317047D01*
X0232031Y0316916D01*
X0232031Y0316784D01*
X0232027Y0316653D01*
X0232019Y0316522D01*
X0232007Y0316391D01*
X0231991Y0316260D01*
X0231971Y0316130D01*
X0231947Y0316001D01*
X0231919Y0315873D01*
X0231888Y0315745D01*
X0231852Y0315618D01*
X0231813Y0315493D01*
X0231770Y0315369D01*
X0231723Y0315246D01*
X0231672Y0315125D01*
X0231618Y0315005D01*
X0231560Y0314887D01*
X0231499Y0314770D01*
X0231434Y0314656D01*
X0231366Y0314544D01*
X0231294Y0314434D01*
X0231219Y0314326D01*
X0231141Y0314220D01*
X0231060Y0314117D01*
X0230975Y0314016D01*
X0230888Y0313918D01*
X0230797Y0313823D01*
X0230704Y0313730D01*
X0230608Y0313640D01*
X0230509Y0313553D01*
X0230408Y0313470D01*
X0230304Y0313389D01*
X0230198Y0313312D01*
X0230089Y0313238D01*
X0229978Y0313167D01*
X0229866Y0313099D01*
X0229751Y0313035D01*
X0229634Y0312975D01*
X0229515Y0312918D01*
X0229395Y0312865D01*
X0229274Y0312815D01*
X0229150Y0312769D01*
X0229026Y0312727D01*
X0228900Y0312689D01*
X0228773Y0312654D01*
X0228645Y0312623D01*
X0228517Y0312597D01*
X0228387Y0312574D01*
X0228257Y0312555D01*
X0228127Y0312540D01*
X0227996Y0312529D01*
X0227864Y0312522D01*
X0227733Y0312519D01*
X0227601Y0312520D01*
X0227470Y0312525D01*
X0227339Y0312534D01*
X0227208Y0312547D01*
X0227078Y0312564D01*
X0226948Y0312585D01*
X0226819Y0312610D01*
X0226691Y0312638D01*
X0226563Y0312671D01*
X0226437Y0312707D01*
X0226312Y0312748D01*
X0226188Y0312792D01*
X0226065Y0312839D01*
X0225944Y0312891D01*
X0225825Y0312946D01*
X0225707Y0313005D01*
X0225592Y0313067D01*
X0225478Y0313133D01*
X0225366Y0313202D01*
X0225256Y0313274D01*
X0225149Y0313350D01*
X0225044Y0313429D01*
X0224941Y0313511D01*
X0224841Y0313596D01*
X0224744Y0313685D01*
X0224649Y0313776D01*
X0224557Y0313870D01*
X0224468Y0313967D01*
X0224382Y0314066D01*
X0224299Y0314168D01*
X0224219Y0314273D01*
X0224143Y0314379D01*
X0224070Y0314488D01*
X0224000Y0314600D01*
X0223933Y0314713D01*
X0223870Y0314828D01*
X0223810Y0314946D01*
X0223754Y0315064D01*
X0223702Y0315185D01*
X0223653Y0315307D01*
X0223608Y0315431D01*
X0223567Y0315555D01*
X0223530Y0315682D01*
X0223496Y0315809D01*
X0223466Y0315937D01*
X0223441Y0316066D01*
X0223419Y0316195D01*
X0223401Y0316325D01*
X0223387Y0316456D01*
X0223377Y0316587D01*
X0223371Y0316719D01*
X0223369Y0316850D01*
X0013369Y0316850D02*
X0013371Y0316981D01*
X0013377Y0317113D01*
X0013387Y0317244D01*
X0013401Y0317375D01*
X0013419Y0317505D01*
X0013441Y0317634D01*
X0013466Y0317763D01*
X0013496Y0317891D01*
X0013530Y0318018D01*
X0013567Y0318145D01*
X0013608Y0318269D01*
X0013653Y0318393D01*
X0013702Y0318515D01*
X0013754Y0318636D01*
X0013810Y0318754D01*
X0013870Y0318872D01*
X0013933Y0318987D01*
X0014000Y0319100D01*
X0014070Y0319212D01*
X0014143Y0319321D01*
X0014219Y0319427D01*
X0014299Y0319532D01*
X0014382Y0319634D01*
X0014468Y0319733D01*
X0014557Y0319830D01*
X0014649Y0319924D01*
X0014744Y0320015D01*
X0014841Y0320104D01*
X0014941Y0320189D01*
X0015044Y0320271D01*
X0015149Y0320350D01*
X0015256Y0320426D01*
X0015366Y0320498D01*
X0015478Y0320567D01*
X0015592Y0320633D01*
X0015707Y0320695D01*
X0015825Y0320754D01*
X0015944Y0320809D01*
X0016065Y0320861D01*
X0016188Y0320908D01*
X0016312Y0320952D01*
X0016437Y0320993D01*
X0016563Y0321029D01*
X0016691Y0321062D01*
X0016819Y0321090D01*
X0016948Y0321115D01*
X0017078Y0321136D01*
X0017208Y0321153D01*
X0017339Y0321166D01*
X0017470Y0321175D01*
X0017601Y0321180D01*
X0017733Y0321181D01*
X0017864Y0321178D01*
X0017996Y0321171D01*
X0018127Y0321160D01*
X0018257Y0321145D01*
X0018387Y0321126D01*
X0018517Y0321103D01*
X0018645Y0321077D01*
X0018773Y0321046D01*
X0018900Y0321011D01*
X0019026Y0320973D01*
X0019150Y0320931D01*
X0019274Y0320885D01*
X0019395Y0320835D01*
X0019515Y0320782D01*
X0019634Y0320725D01*
X0019751Y0320665D01*
X0019865Y0320601D01*
X0019978Y0320533D01*
X0020089Y0320462D01*
X0020198Y0320388D01*
X0020304Y0320311D01*
X0020408Y0320230D01*
X0020509Y0320147D01*
X0020608Y0320060D01*
X0020704Y0319970D01*
X0020797Y0319877D01*
X0020888Y0319782D01*
X0020975Y0319684D01*
X0021060Y0319583D01*
X0021141Y0319480D01*
X0021219Y0319374D01*
X0021294Y0319266D01*
X0021366Y0319156D01*
X0021434Y0319044D01*
X0021499Y0318930D01*
X0021560Y0318813D01*
X0021618Y0318695D01*
X0021672Y0318575D01*
X0021723Y0318454D01*
X0021770Y0318331D01*
X0021813Y0318207D01*
X0021852Y0318082D01*
X0021888Y0317955D01*
X0021919Y0317827D01*
X0021947Y0317699D01*
X0021971Y0317570D01*
X0021991Y0317440D01*
X0022007Y0317309D01*
X0022019Y0317178D01*
X0022027Y0317047D01*
X0022031Y0316916D01*
X0022031Y0316784D01*
X0022027Y0316653D01*
X0022019Y0316522D01*
X0022007Y0316391D01*
X0021991Y0316260D01*
X0021971Y0316130D01*
X0021947Y0316001D01*
X0021919Y0315873D01*
X0021888Y0315745D01*
X0021852Y0315618D01*
X0021813Y0315493D01*
X0021770Y0315369D01*
X0021723Y0315246D01*
X0021672Y0315125D01*
X0021618Y0315005D01*
X0021560Y0314887D01*
X0021499Y0314770D01*
X0021434Y0314656D01*
X0021366Y0314544D01*
X0021294Y0314434D01*
X0021219Y0314326D01*
X0021141Y0314220D01*
X0021060Y0314117D01*
X0020975Y0314016D01*
X0020888Y0313918D01*
X0020797Y0313823D01*
X0020704Y0313730D01*
X0020608Y0313640D01*
X0020509Y0313553D01*
X0020408Y0313470D01*
X0020304Y0313389D01*
X0020198Y0313312D01*
X0020089Y0313238D01*
X0019978Y0313167D01*
X0019866Y0313099D01*
X0019751Y0313035D01*
X0019634Y0312975D01*
X0019515Y0312918D01*
X0019395Y0312865D01*
X0019274Y0312815D01*
X0019150Y0312769D01*
X0019026Y0312727D01*
X0018900Y0312689D01*
X0018773Y0312654D01*
X0018645Y0312623D01*
X0018517Y0312597D01*
X0018387Y0312574D01*
X0018257Y0312555D01*
X0018127Y0312540D01*
X0017996Y0312529D01*
X0017864Y0312522D01*
X0017733Y0312519D01*
X0017601Y0312520D01*
X0017470Y0312525D01*
X0017339Y0312534D01*
X0017208Y0312547D01*
X0017078Y0312564D01*
X0016948Y0312585D01*
X0016819Y0312610D01*
X0016691Y0312638D01*
X0016563Y0312671D01*
X0016437Y0312707D01*
X0016312Y0312748D01*
X0016188Y0312792D01*
X0016065Y0312839D01*
X0015944Y0312891D01*
X0015825Y0312946D01*
X0015707Y0313005D01*
X0015592Y0313067D01*
X0015478Y0313133D01*
X0015366Y0313202D01*
X0015256Y0313274D01*
X0015149Y0313350D01*
X0015044Y0313429D01*
X0014941Y0313511D01*
X0014841Y0313596D01*
X0014744Y0313685D01*
X0014649Y0313776D01*
X0014557Y0313870D01*
X0014468Y0313967D01*
X0014382Y0314066D01*
X0014299Y0314168D01*
X0014219Y0314273D01*
X0014143Y0314379D01*
X0014070Y0314488D01*
X0014000Y0314600D01*
X0013933Y0314713D01*
X0013870Y0314828D01*
X0013810Y0314946D01*
X0013754Y0315064D01*
X0013702Y0315185D01*
X0013653Y0315307D01*
X0013608Y0315431D01*
X0013567Y0315555D01*
X0013530Y0315682D01*
X0013496Y0315809D01*
X0013466Y0315937D01*
X0013441Y0316066D01*
X0013419Y0316195D01*
X0013401Y0316325D01*
X0013387Y0316456D01*
X0013377Y0316587D01*
X0013371Y0316719D01*
X0013369Y0316850D01*
D11*
X0042700Y0301850D03*
X0057700Y0301850D03*
X0072700Y0301850D03*
X0072700Y0271850D03*
X0057700Y0271850D03*
X0042700Y0271850D03*
X0042700Y0259350D03*
X0037700Y0251850D03*
X0047700Y0251850D03*
X0057700Y0239350D03*
X0052700Y0231850D03*
X0062700Y0231850D03*
X0072700Y0219350D03*
X0067700Y0211850D03*
X0077700Y0211850D03*
X0072700Y0196850D03*
X0062700Y0196850D03*
X0057700Y0216850D03*
X0032700Y0196850D03*
X0027700Y0216850D03*
X0024875Y0176045D03*
X0051485Y0159360D03*
X0056485Y0166860D03*
X0061485Y0159360D03*
X0072700Y0166850D03*
X0082700Y0166850D03*
X0082700Y0181850D03*
X0092700Y0196850D03*
X0107700Y0196850D03*
X0112700Y0181850D03*
X0122700Y0181850D03*
X0112700Y0166850D03*
X0117700Y0151850D03*
X0117700Y0136850D03*
X0117700Y0121850D03*
X0102700Y0146850D03*
X0097700Y0154350D03*
X0092700Y0146850D03*
X0072700Y0146850D03*
X0089155Y0119565D03*
X0084155Y0112065D03*
X0094155Y0112065D03*
X0087700Y0096850D03*
X0072700Y0096850D03*
X0072700Y0116850D03*
X0072700Y0066850D03*
X0087700Y0066850D03*
X0097700Y0046850D03*
X0102700Y0039350D03*
X0107700Y0046850D03*
X0120200Y0031850D03*
X0127700Y0026850D03*
X0127700Y0036850D03*
X0142700Y0051850D03*
X0135200Y0056850D03*
X0142700Y0061850D03*
X0147700Y0036850D03*
X0177700Y0036850D03*
X0187700Y0081850D03*
X0172700Y0086850D03*
X0172700Y0116850D03*
X0172700Y0131850D03*
X0177700Y0139350D03*
X0182700Y0131850D03*
X0197700Y0131850D03*
X0202700Y0139350D03*
X0207700Y0131850D03*
X0202700Y0109350D03*
X0197700Y0101850D03*
X0207700Y0101850D03*
X0217700Y0081850D03*
X0217700Y0156850D03*
X0212700Y0164350D03*
X0207700Y0156850D03*
X0192700Y0156850D03*
X0187700Y0164350D03*
X0182700Y0156850D03*
X0172700Y0181850D03*
X0167700Y0189350D03*
X0162700Y0181850D03*
X0157700Y0166850D03*
X0147700Y0151850D03*
X0142700Y0166850D03*
X0142700Y0196850D03*
X0137700Y0211850D03*
X0142700Y0219350D03*
X0147700Y0211850D03*
X0157700Y0201850D03*
X0167700Y0221850D03*
X0157700Y0236850D03*
X0157700Y0251850D03*
X0162700Y0259350D03*
X0167700Y0251850D03*
X0182700Y0251850D03*
X0187700Y0259350D03*
X0192700Y0251850D03*
X0187700Y0236850D03*
X0197700Y0221850D03*
X0207700Y0236850D03*
X0207700Y0251850D03*
X0212700Y0259350D03*
X0217700Y0251850D03*
X0202700Y0271850D03*
X0187700Y0271850D03*
X0172700Y0271850D03*
X0172700Y0301850D03*
X0187700Y0301850D03*
X0202700Y0301850D03*
X0142700Y0286850D03*
X0127700Y0286850D03*
X0112700Y0286850D03*
X0112700Y0256850D03*
X0107700Y0241850D03*
X0102700Y0249350D03*
X0097700Y0241850D03*
X0092700Y0226850D03*
X0107700Y0226850D03*
X0122700Y0231850D03*
X0127700Y0239350D03*
X0132700Y0231850D03*
X0122700Y0211850D03*
X0127700Y0256850D03*
X0142700Y0256850D03*
X0187700Y0201850D03*
X0202700Y0189350D03*
X0197700Y0181850D03*
X0207700Y0181850D03*
X0207700Y0206850D03*
X0157700Y0136850D03*
X0147700Y0136850D03*
X0147700Y0121850D03*
X0147700Y0096850D03*
X0117700Y0096850D03*
X0057700Y0061850D03*
X0057700Y0031850D03*
X0054875Y0176045D03*
D12*
X0036885Y0052210D02*
X0030885Y0052210D01*
X0030885Y0042210D02*
X0036885Y0042210D01*
X0205590Y0053685D02*
X0211590Y0053685D01*
X0211590Y0063685D02*
X0205590Y0063685D01*
X0137350Y0303155D02*
X0137350Y0309155D01*
X0127350Y0309155D02*
X0127350Y0303155D01*
X0117350Y0303155D02*
X0117350Y0309155D01*
D13*
X0114205Y0312091D02*
X0021611Y0312091D01*
X0021173Y0311653D02*
X0022897Y0313377D01*
X0023831Y0315631D01*
X0023831Y0318069D01*
X0022897Y0320323D01*
X0021173Y0322047D01*
X0018919Y0322981D01*
X0016481Y0322981D01*
X0014227Y0322047D01*
X0012503Y0320323D01*
X0011569Y0318069D01*
X0011569Y0315631D01*
X0012503Y0313377D01*
X0014227Y0311653D01*
X0016481Y0310719D01*
X0018919Y0310719D01*
X0021173Y0311653D01*
X0023027Y0313690D02*
X0222373Y0313690D01*
X0222503Y0313377D02*
X0224227Y0311653D01*
X0226481Y0310719D01*
X0228919Y0310719D01*
X0231173Y0311653D01*
X0232897Y0313377D01*
X0233831Y0315631D01*
X0233831Y0318069D01*
X0232897Y0320323D01*
X0231173Y0322047D01*
X0228919Y0322981D01*
X0226481Y0322981D01*
X0224227Y0322047D01*
X0222503Y0320323D01*
X0221569Y0318069D01*
X0221569Y0315631D01*
X0222503Y0313377D01*
X0223789Y0312091D02*
X0140495Y0312091D01*
X0140995Y0311591D02*
X0139786Y0312800D01*
X0138205Y0313455D01*
X0136495Y0313455D01*
X0134914Y0312800D01*
X0133705Y0311591D01*
X0133050Y0310010D01*
X0133050Y0302300D01*
X0133705Y0300719D01*
X0134914Y0299510D01*
X0136495Y0298855D01*
X0138205Y0298855D01*
X0139786Y0299510D01*
X0140995Y0300719D01*
X0141650Y0302300D01*
X0141650Y0310010D01*
X0140995Y0311591D01*
X0141450Y0310493D02*
X0235815Y0310493D01*
X0235815Y0312091D02*
X0231611Y0312091D01*
X0233027Y0313690D02*
X0235815Y0313690D01*
X0235815Y0315288D02*
X0233689Y0315288D01*
X0233831Y0316887D02*
X0235815Y0316887D01*
X0235815Y0318485D02*
X0233658Y0318485D01*
X0232996Y0320084D02*
X0235815Y0320084D01*
X0235815Y0321682D02*
X0231538Y0321682D01*
X0235815Y0323281D02*
X0009500Y0323281D01*
X0009500Y0324879D02*
X0235815Y0324879D01*
X0235815Y0325251D02*
X0235815Y0008650D01*
X0009500Y0008650D01*
X0009500Y0325251D01*
X0235815Y0325251D01*
X0223862Y0321682D02*
X0021538Y0321682D01*
X0022996Y0320084D02*
X0222404Y0320084D01*
X0221742Y0318485D02*
X0023658Y0318485D01*
X0023831Y0316887D02*
X0221569Y0316887D01*
X0221711Y0315288D02*
X0023689Y0315288D01*
X0013789Y0312091D02*
X0009500Y0312091D01*
X0009500Y0310493D02*
X0113250Y0310493D01*
X0113050Y0310010D02*
X0113705Y0311591D01*
X0114914Y0312800D01*
X0116495Y0313455D01*
X0118205Y0313455D01*
X0119786Y0312800D01*
X0120995Y0311591D01*
X0121650Y0310010D01*
X0121650Y0302300D01*
X0120995Y0300719D01*
X0119786Y0299510D01*
X0118205Y0298855D01*
X0116495Y0298855D01*
X0114914Y0299510D01*
X0113705Y0300719D01*
X0113050Y0302300D01*
X0113050Y0310010D01*
X0113050Y0308894D02*
X0009500Y0308894D01*
X0009500Y0307296D02*
X0113050Y0307296D01*
X0113050Y0305697D02*
X0074368Y0305697D01*
X0074315Y0305750D02*
X0071085Y0305750D01*
X0068800Y0303465D01*
X0068800Y0300235D01*
X0071085Y0297950D01*
X0074315Y0297950D01*
X0076600Y0300235D01*
X0076600Y0303465D01*
X0074315Y0305750D01*
X0075967Y0304099D02*
X0113050Y0304099D01*
X0113050Y0302500D02*
X0076600Y0302500D01*
X0076600Y0300902D02*
X0113629Y0300902D01*
X0115413Y0299303D02*
X0075669Y0299303D01*
X0069731Y0299303D02*
X0060669Y0299303D01*
X0061600Y0300235D02*
X0059315Y0297950D01*
X0056085Y0297950D01*
X0053800Y0300235D01*
X0053800Y0303465D01*
X0056085Y0305750D01*
X0059315Y0305750D01*
X0061600Y0303465D01*
X0061600Y0300235D01*
X0061600Y0300902D02*
X0068800Y0300902D01*
X0068800Y0302500D02*
X0061600Y0302500D01*
X0060967Y0304099D02*
X0069433Y0304099D01*
X0071032Y0305697D02*
X0059368Y0305697D01*
X0056032Y0305697D02*
X0044368Y0305697D01*
X0044315Y0305750D02*
X0041085Y0305750D01*
X0038800Y0303465D01*
X0038800Y0300235D01*
X0041085Y0297950D01*
X0044315Y0297950D01*
X0046600Y0300235D01*
X0046600Y0303465D01*
X0044315Y0305750D01*
X0045967Y0304099D02*
X0054433Y0304099D01*
X0053800Y0302500D02*
X0046600Y0302500D01*
X0046600Y0300902D02*
X0053800Y0300902D01*
X0054731Y0299303D02*
X0045669Y0299303D01*
X0039731Y0299303D02*
X0009500Y0299303D01*
X0009500Y0297705D02*
X0235815Y0297705D01*
X0235815Y0299303D02*
X0205669Y0299303D01*
X0206600Y0300235D02*
X0204315Y0297950D01*
X0201085Y0297950D01*
X0198800Y0300235D01*
X0198800Y0303465D01*
X0201085Y0305750D01*
X0204315Y0305750D01*
X0206600Y0303465D01*
X0206600Y0300235D01*
X0206600Y0300902D02*
X0235815Y0300902D01*
X0235815Y0302500D02*
X0206600Y0302500D01*
X0205967Y0304099D02*
X0235815Y0304099D01*
X0235815Y0305697D02*
X0204368Y0305697D01*
X0201032Y0305697D02*
X0189368Y0305697D01*
X0189315Y0305750D02*
X0186085Y0305750D01*
X0183800Y0303465D01*
X0183800Y0300235D01*
X0186085Y0297950D01*
X0189315Y0297950D01*
X0191600Y0300235D01*
X0191600Y0303465D01*
X0189315Y0305750D01*
X0190967Y0304099D02*
X0199433Y0304099D01*
X0198800Y0302500D02*
X0191600Y0302500D01*
X0191600Y0300902D02*
X0198800Y0300902D01*
X0199731Y0299303D02*
X0190669Y0299303D01*
X0184731Y0299303D02*
X0175669Y0299303D01*
X0176600Y0300235D02*
X0174315Y0297950D01*
X0171085Y0297950D01*
X0168800Y0300235D01*
X0168800Y0303465D01*
X0171085Y0305750D01*
X0174315Y0305750D01*
X0176600Y0303465D01*
X0176600Y0300235D01*
X0176600Y0300902D02*
X0183800Y0300902D01*
X0183800Y0302500D02*
X0176600Y0302500D01*
X0175967Y0304099D02*
X0184433Y0304099D01*
X0186032Y0305697D02*
X0174368Y0305697D01*
X0171032Y0305697D02*
X0141650Y0305697D01*
X0141650Y0304099D02*
X0169433Y0304099D01*
X0168800Y0302500D02*
X0141650Y0302500D01*
X0141071Y0300902D02*
X0168800Y0300902D01*
X0169731Y0299303D02*
X0139287Y0299303D01*
X0135413Y0299303D02*
X0129287Y0299303D01*
X0129786Y0299510D02*
X0130995Y0300719D01*
X0131650Y0302300D01*
X0131650Y0310010D01*
X0130995Y0311591D01*
X0129786Y0312800D01*
X0128205Y0313455D01*
X0126495Y0313455D01*
X0124914Y0312800D01*
X0123705Y0311591D01*
X0123050Y0310010D01*
X0123050Y0302300D01*
X0123705Y0300719D01*
X0124914Y0299510D01*
X0126495Y0298855D01*
X0128205Y0298855D01*
X0129786Y0299510D01*
X0131071Y0300902D02*
X0133629Y0300902D01*
X0133050Y0302500D02*
X0131650Y0302500D01*
X0131650Y0304099D02*
X0133050Y0304099D01*
X0133050Y0305697D02*
X0131650Y0305697D01*
X0131650Y0307296D02*
X0133050Y0307296D01*
X0133050Y0308894D02*
X0131650Y0308894D01*
X0131450Y0310493D02*
X0133250Y0310493D01*
X0134205Y0312091D02*
X0130495Y0312091D01*
X0124205Y0312091D02*
X0120495Y0312091D01*
X0121450Y0310493D02*
X0123250Y0310493D01*
X0123050Y0308894D02*
X0121650Y0308894D01*
X0121650Y0307296D02*
X0123050Y0307296D01*
X0123050Y0305697D02*
X0121650Y0305697D01*
X0121650Y0304099D02*
X0123050Y0304099D01*
X0123050Y0302500D02*
X0121650Y0302500D01*
X0121071Y0300902D02*
X0123629Y0300902D01*
X0125413Y0299303D02*
X0119287Y0299303D01*
X0114315Y0290750D02*
X0111085Y0290750D01*
X0108800Y0288465D01*
X0108800Y0285235D01*
X0111085Y0282950D01*
X0114315Y0282950D01*
X0116600Y0285235D01*
X0116600Y0288465D01*
X0114315Y0290750D01*
X0115353Y0289712D02*
X0125047Y0289712D01*
X0126085Y0290750D02*
X0123800Y0288465D01*
X0123800Y0285235D01*
X0126085Y0282950D01*
X0129315Y0282950D01*
X0131600Y0285235D01*
X0131600Y0288465D01*
X0129315Y0290750D01*
X0126085Y0290750D01*
X0123800Y0288114D02*
X0116600Y0288114D01*
X0116600Y0286515D02*
X0123800Y0286515D01*
X0124118Y0284917D02*
X0116282Y0284917D01*
X0114683Y0283318D02*
X0125717Y0283318D01*
X0129683Y0283318D02*
X0140717Y0283318D01*
X0141085Y0282950D02*
X0144315Y0282950D01*
X0146600Y0285235D01*
X0146600Y0288465D01*
X0144315Y0290750D01*
X0141085Y0290750D01*
X0138800Y0288465D01*
X0138800Y0285235D01*
X0141085Y0282950D01*
X0139118Y0284917D02*
X0131282Y0284917D01*
X0131600Y0286515D02*
X0138800Y0286515D01*
X0138800Y0288114D02*
X0131600Y0288114D01*
X0130353Y0289712D02*
X0140047Y0289712D01*
X0145353Y0289712D02*
X0235815Y0289712D01*
X0235815Y0288114D02*
X0146600Y0288114D01*
X0146600Y0286515D02*
X0235815Y0286515D01*
X0235815Y0284917D02*
X0146282Y0284917D01*
X0144683Y0283318D02*
X0235815Y0283318D01*
X0235815Y0281720D02*
X0009500Y0281720D01*
X0009500Y0283318D02*
X0110717Y0283318D01*
X0109118Y0284917D02*
X0009500Y0284917D01*
X0009500Y0286515D02*
X0108800Y0286515D01*
X0108800Y0288114D02*
X0009500Y0288114D01*
X0009500Y0289712D02*
X0110047Y0289712D01*
X0111085Y0260750D02*
X0108800Y0258465D01*
X0108800Y0255235D01*
X0111085Y0252950D01*
X0114315Y0252950D01*
X0116600Y0255235D01*
X0116600Y0258465D01*
X0114315Y0260750D01*
X0111085Y0260750D01*
X0109675Y0259340D02*
X0046600Y0259340D01*
X0046600Y0257742D02*
X0108800Y0257742D01*
X0108800Y0256143D02*
X0045009Y0256143D01*
X0044315Y0255450D02*
X0046600Y0257735D01*
X0046600Y0260965D01*
X0044315Y0263250D01*
X0041085Y0263250D01*
X0038800Y0260965D01*
X0038800Y0257735D01*
X0041085Y0255450D01*
X0044315Y0255450D01*
X0044879Y0254545D02*
X0041228Y0254545D01*
X0042100Y0253673D02*
X0039523Y0256250D01*
X0037700Y0256250D01*
X0037700Y0251850D01*
X0042100Y0251850D01*
X0042100Y0253673D01*
X0042100Y0252946D02*
X0043800Y0252946D01*
X0043800Y0253465D02*
X0043800Y0250235D01*
X0046085Y0247950D01*
X0049315Y0247950D01*
X0051600Y0250235D01*
X0051600Y0253465D01*
X0049315Y0255750D01*
X0046085Y0255750D01*
X0043800Y0253465D01*
X0043800Y0251348D02*
X0042100Y0251348D01*
X0042100Y0251850D02*
X0037700Y0251850D01*
X0037700Y0251850D01*
X0037700Y0251850D01*
X0037700Y0247450D01*
X0039523Y0247450D01*
X0042100Y0250027D01*
X0042100Y0251850D01*
X0041822Y0249749D02*
X0044285Y0249749D01*
X0045884Y0248151D02*
X0040223Y0248151D01*
X0037700Y0248151D02*
X0037700Y0248151D01*
X0037700Y0247450D02*
X0037700Y0251850D01*
X0037700Y0251850D01*
X0037700Y0251850D01*
X0033300Y0251850D01*
X0033300Y0253673D01*
X0035877Y0256250D01*
X0037700Y0256250D01*
X0037700Y0251850D01*
X0033300Y0251850D01*
X0033300Y0250027D01*
X0035877Y0247450D01*
X0037700Y0247450D01*
X0037700Y0249749D02*
X0037700Y0249749D01*
X0037700Y0251348D02*
X0037700Y0251348D01*
X0037700Y0252946D02*
X0037700Y0252946D01*
X0037700Y0254545D02*
X0037700Y0254545D01*
X0037700Y0256143D02*
X0037700Y0256143D01*
X0039629Y0256143D02*
X0040391Y0256143D01*
X0038800Y0257742D02*
X0009500Y0257742D01*
X0009500Y0259340D02*
X0038800Y0259340D01*
X0038800Y0260939D02*
X0009500Y0260939D01*
X0009500Y0262537D02*
X0040372Y0262537D01*
X0045028Y0262537D02*
X0160372Y0262537D01*
X0161085Y0263250D02*
X0158800Y0260965D01*
X0158800Y0257735D01*
X0161085Y0255450D01*
X0164315Y0255450D01*
X0166600Y0257735D01*
X0166600Y0260965D01*
X0164315Y0263250D01*
X0161085Y0263250D01*
X0158800Y0260939D02*
X0046600Y0260939D01*
X0044315Y0267950D02*
X0046600Y0270235D01*
X0046600Y0273465D01*
X0044315Y0275750D01*
X0041085Y0275750D01*
X0038800Y0273465D01*
X0038800Y0270235D01*
X0041085Y0267950D01*
X0044315Y0267950D01*
X0045297Y0268931D02*
X0055103Y0268931D01*
X0056085Y0267950D02*
X0059315Y0267950D01*
X0061600Y0270235D01*
X0061600Y0273465D01*
X0059315Y0275750D01*
X0056085Y0275750D01*
X0053800Y0273465D01*
X0053800Y0270235D01*
X0056085Y0267950D01*
X0053800Y0270530D02*
X0046600Y0270530D01*
X0046600Y0272128D02*
X0053800Y0272128D01*
X0054062Y0273727D02*
X0046338Y0273727D01*
X0044740Y0275325D02*
X0055660Y0275325D01*
X0059740Y0275325D02*
X0070660Y0275325D01*
X0071085Y0275750D02*
X0068800Y0273465D01*
X0068800Y0270235D01*
X0071085Y0267950D01*
X0074315Y0267950D01*
X0076600Y0270235D01*
X0076600Y0273465D01*
X0074315Y0275750D01*
X0071085Y0275750D01*
X0069062Y0273727D02*
X0061338Y0273727D01*
X0061600Y0272128D02*
X0068800Y0272128D01*
X0068800Y0270530D02*
X0061600Y0270530D01*
X0060297Y0268931D02*
X0070103Y0268931D01*
X0075297Y0268931D02*
X0170103Y0268931D01*
X0171085Y0267950D02*
X0174315Y0267950D01*
X0176600Y0270235D01*
X0176600Y0273465D01*
X0174315Y0275750D01*
X0171085Y0275750D01*
X0168800Y0273465D01*
X0168800Y0270235D01*
X0171085Y0267950D01*
X0168800Y0270530D02*
X0076600Y0270530D01*
X0076600Y0272128D02*
X0168800Y0272128D01*
X0169062Y0273727D02*
X0076338Y0273727D01*
X0074740Y0275325D02*
X0170660Y0275325D01*
X0174740Y0275325D02*
X0185660Y0275325D01*
X0186085Y0275750D02*
X0183800Y0273465D01*
X0183800Y0270235D01*
X0186085Y0267950D01*
X0189315Y0267950D01*
X0191600Y0270235D01*
X0191600Y0273465D01*
X0189315Y0275750D01*
X0186085Y0275750D01*
X0184062Y0273727D02*
X0176338Y0273727D01*
X0176600Y0272128D02*
X0183800Y0272128D01*
X0183800Y0270530D02*
X0176600Y0270530D01*
X0175297Y0268931D02*
X0185103Y0268931D01*
X0190297Y0268931D02*
X0200103Y0268931D01*
X0201085Y0267950D02*
X0198800Y0270235D01*
X0198800Y0273465D01*
X0201085Y0275750D01*
X0204315Y0275750D01*
X0206600Y0273465D01*
X0206600Y0270235D01*
X0204315Y0267950D01*
X0201085Y0267950D01*
X0198800Y0270530D02*
X0191600Y0270530D01*
X0191600Y0272128D02*
X0198800Y0272128D01*
X0199062Y0273727D02*
X0191338Y0273727D01*
X0189740Y0275325D02*
X0200660Y0275325D01*
X0204740Y0275325D02*
X0235815Y0275325D01*
X0235815Y0273727D02*
X0206338Y0273727D01*
X0206600Y0272128D02*
X0235815Y0272128D01*
X0235815Y0270530D02*
X0206600Y0270530D01*
X0205297Y0268931D02*
X0235815Y0268931D01*
X0235815Y0267333D02*
X0009500Y0267333D01*
X0009500Y0268931D02*
X0040103Y0268931D01*
X0038800Y0270530D02*
X0009500Y0270530D01*
X0009500Y0272128D02*
X0038800Y0272128D01*
X0039062Y0273727D02*
X0009500Y0273727D01*
X0009500Y0275325D02*
X0040660Y0275325D01*
X0035771Y0256143D02*
X0009500Y0256143D01*
X0009500Y0254545D02*
X0034172Y0254545D01*
X0033300Y0252946D02*
X0009500Y0252946D01*
X0009500Y0251348D02*
X0033300Y0251348D01*
X0033578Y0249749D02*
X0009500Y0249749D01*
X0009500Y0248151D02*
X0035177Y0248151D01*
X0048800Y0233465D02*
X0048800Y0230235D01*
X0051085Y0227950D01*
X0054315Y0227950D01*
X0056600Y0230235D01*
X0056600Y0233465D01*
X0054315Y0235750D01*
X0051085Y0235750D01*
X0048800Y0233465D01*
X0049099Y0233764D02*
X0009500Y0233764D01*
X0009500Y0232166D02*
X0048800Y0232166D01*
X0048800Y0230567D02*
X0009500Y0230567D01*
X0009500Y0228969D02*
X0050066Y0228969D01*
X0055334Y0228969D02*
X0060066Y0228969D01*
X0061085Y0227950D02*
X0064315Y0227950D01*
X0066600Y0230235D01*
X0066600Y0233465D01*
X0064315Y0235750D01*
X0061085Y0235750D01*
X0058800Y0233465D01*
X0058800Y0230235D01*
X0061085Y0227950D01*
X0058800Y0230567D02*
X0056600Y0230567D01*
X0056600Y0232166D02*
X0058800Y0232166D01*
X0059099Y0233764D02*
X0056301Y0233764D01*
X0056085Y0235450D02*
X0059315Y0235450D01*
X0061600Y0237735D01*
X0061600Y0240965D01*
X0059315Y0243250D01*
X0056085Y0243250D01*
X0053800Y0240965D01*
X0053800Y0237735D01*
X0056085Y0235450D01*
X0054703Y0235363D02*
X0060697Y0235363D01*
X0060827Y0236961D02*
X0124573Y0236961D01*
X0123800Y0237735D02*
X0126085Y0235450D01*
X0129315Y0235450D01*
X0131600Y0237735D01*
X0131600Y0240965D01*
X0129315Y0243250D01*
X0126085Y0243250D01*
X0123800Y0240965D01*
X0123800Y0237735D01*
X0123800Y0238560D02*
X0109925Y0238560D01*
X0109315Y0237950D02*
X0111600Y0240235D01*
X0111600Y0243465D01*
X0109315Y0245750D01*
X0106085Y0245750D01*
X0103800Y0243465D01*
X0103800Y0240235D01*
X0106085Y0237950D01*
X0109315Y0237950D01*
X0111524Y0240158D02*
X0123800Y0240158D01*
X0124591Y0241757D02*
X0111600Y0241757D01*
X0111600Y0243355D02*
X0141150Y0243355D01*
X0141150Y0241757D02*
X0130809Y0241757D01*
X0131600Y0240158D02*
X0141150Y0240158D01*
X0141150Y0238560D02*
X0131600Y0238560D01*
X0130827Y0236961D02*
X0141150Y0236961D01*
X0141150Y0235363D02*
X0134703Y0235363D01*
X0134315Y0235750D02*
X0131085Y0235750D01*
X0128800Y0233465D01*
X0128800Y0230235D01*
X0131085Y0227950D01*
X0134315Y0227950D01*
X0136600Y0230235D01*
X0136600Y0233465D01*
X0134315Y0235750D01*
X0136301Y0233764D02*
X0141150Y0233764D01*
X0141150Y0232166D02*
X0136600Y0232166D01*
X0136600Y0230567D02*
X0141150Y0230567D01*
X0141150Y0228969D02*
X0135334Y0228969D01*
X0130066Y0228969D02*
X0125334Y0228969D01*
X0124315Y0227950D02*
X0126600Y0230235D01*
X0126600Y0233465D01*
X0124315Y0235750D01*
X0121085Y0235750D01*
X0118800Y0233465D01*
X0118800Y0230235D01*
X0121085Y0227950D01*
X0124315Y0227950D01*
X0126600Y0230567D02*
X0128800Y0230567D01*
X0128800Y0232166D02*
X0126600Y0232166D01*
X0126301Y0233764D02*
X0129099Y0233764D01*
X0130697Y0235363D02*
X0124703Y0235363D01*
X0120697Y0235363D02*
X0064703Y0235363D01*
X0066301Y0233764D02*
X0119099Y0233764D01*
X0118800Y0232166D02*
X0066600Y0232166D01*
X0066600Y0230567D02*
X0090902Y0230567D01*
X0091085Y0230750D02*
X0088800Y0228465D01*
X0088800Y0225235D01*
X0091085Y0222950D01*
X0094315Y0222950D01*
X0096600Y0225235D01*
X0096600Y0228465D01*
X0094315Y0230750D01*
X0091085Y0230750D01*
X0089303Y0228969D02*
X0065334Y0228969D01*
X0071085Y0223250D02*
X0068800Y0220965D01*
X0068800Y0217735D01*
X0071085Y0215450D01*
X0074315Y0215450D01*
X0076600Y0217735D01*
X0076600Y0220965D01*
X0074315Y0223250D01*
X0071085Y0223250D01*
X0070409Y0222575D02*
X0009500Y0222575D01*
X0009500Y0224173D02*
X0089861Y0224173D01*
X0088800Y0225772D02*
X0009500Y0225772D01*
X0009500Y0227370D02*
X0088800Y0227370D01*
X0094498Y0230567D02*
X0105902Y0230567D01*
X0106085Y0230750D02*
X0103800Y0228465D01*
X0103800Y0225235D01*
X0106085Y0222950D01*
X0109315Y0222950D01*
X0111600Y0225235D01*
X0111600Y0228465D01*
X0109315Y0230750D01*
X0106085Y0230750D01*
X0104303Y0228969D02*
X0096097Y0228969D01*
X0096600Y0227370D02*
X0103800Y0227370D01*
X0103800Y0225772D02*
X0096600Y0225772D01*
X0095539Y0224173D02*
X0104861Y0224173D01*
X0109498Y0230567D02*
X0118800Y0230567D01*
X0120066Y0228969D02*
X0111097Y0228969D01*
X0111600Y0227370D02*
X0141150Y0227370D01*
X0141150Y0225772D02*
X0111600Y0225772D01*
X0110539Y0224173D02*
X0141150Y0224173D01*
X0141150Y0223250D02*
X0141085Y0223250D01*
X0138800Y0220965D01*
X0138800Y0217735D01*
X0141085Y0215450D01*
X0144315Y0215450D01*
X0146600Y0217735D01*
X0146600Y0220965D01*
X0144315Y0223250D01*
X0144250Y0223250D01*
X0144250Y0252950D01*
X0144315Y0252950D01*
X0146600Y0255235D01*
X0146600Y0258465D01*
X0144315Y0260750D01*
X0141085Y0260750D01*
X0138800Y0258465D01*
X0138800Y0255235D01*
X0141085Y0252950D01*
X0141150Y0252950D01*
X0141150Y0223250D01*
X0140409Y0222575D02*
X0074991Y0222575D01*
X0076589Y0220976D02*
X0138811Y0220976D01*
X0138800Y0219378D02*
X0076600Y0219378D01*
X0076600Y0217779D02*
X0138800Y0217779D01*
X0139315Y0215750D02*
X0136085Y0215750D01*
X0133800Y0213465D01*
X0133800Y0210235D01*
X0136085Y0207950D01*
X0139315Y0207950D01*
X0141600Y0210235D01*
X0141600Y0213465D01*
X0139315Y0215750D01*
X0140354Y0216181D02*
X0075046Y0216181D01*
X0076085Y0215750D02*
X0073800Y0213465D01*
X0073800Y0210235D01*
X0076085Y0207950D01*
X0079315Y0207950D01*
X0081600Y0210235D01*
X0081600Y0213465D01*
X0079315Y0215750D01*
X0076085Y0215750D01*
X0074917Y0214582D02*
X0070483Y0214582D01*
X0071600Y0213465D02*
X0069315Y0215750D01*
X0066085Y0215750D01*
X0063800Y0213465D01*
X0063800Y0210235D01*
X0066085Y0207950D01*
X0069315Y0207950D01*
X0071600Y0210235D01*
X0071600Y0213465D01*
X0071600Y0212984D02*
X0073800Y0212984D01*
X0073800Y0211385D02*
X0071600Y0211385D01*
X0071152Y0209787D02*
X0074248Y0209787D01*
X0075847Y0208188D02*
X0069553Y0208188D01*
X0065847Y0208188D02*
X0009500Y0208188D01*
X0009500Y0209787D02*
X0064248Y0209787D01*
X0063800Y0211385D02*
X0009500Y0211385D01*
X0009500Y0212984D02*
X0026051Y0212984D01*
X0026085Y0212950D02*
X0029315Y0212950D01*
X0031600Y0215235D01*
X0031600Y0218465D01*
X0029315Y0220750D01*
X0026085Y0220750D01*
X0023800Y0218465D01*
X0023800Y0215235D01*
X0026085Y0212950D01*
X0024453Y0214582D02*
X0009500Y0214582D01*
X0009500Y0216181D02*
X0023800Y0216181D01*
X0023800Y0217779D02*
X0009500Y0217779D01*
X0009500Y0219378D02*
X0024712Y0219378D01*
X0030688Y0219378D02*
X0054712Y0219378D01*
X0053800Y0218465D02*
X0053800Y0215235D01*
X0056085Y0212950D01*
X0059315Y0212950D01*
X0061600Y0215235D01*
X0061600Y0218465D01*
X0059315Y0220750D01*
X0056085Y0220750D01*
X0053800Y0218465D01*
X0053800Y0217779D02*
X0031600Y0217779D01*
X0031600Y0216181D02*
X0053800Y0216181D01*
X0054453Y0214582D02*
X0030947Y0214582D01*
X0029349Y0212984D02*
X0056051Y0212984D01*
X0059349Y0212984D02*
X0063800Y0212984D01*
X0064917Y0214582D02*
X0060947Y0214582D01*
X0061600Y0216181D02*
X0070354Y0216181D01*
X0068800Y0217779D02*
X0061600Y0217779D01*
X0060688Y0219378D02*
X0068800Y0219378D01*
X0068811Y0220976D02*
X0009500Y0220976D01*
X0009500Y0235363D02*
X0050697Y0235363D01*
X0053800Y0238560D02*
X0009500Y0238560D01*
X0009500Y0240158D02*
X0053800Y0240158D01*
X0054591Y0241757D02*
X0009500Y0241757D01*
X0009500Y0243355D02*
X0093300Y0243355D01*
X0093300Y0243673D02*
X0093300Y0241850D01*
X0097700Y0241850D01*
X0102100Y0241850D01*
X0102100Y0243673D01*
X0099523Y0246250D01*
X0097700Y0246250D01*
X0097700Y0241850D01*
X0097700Y0241850D01*
X0097700Y0241850D01*
X0102100Y0241850D01*
X0102100Y0240027D01*
X0099523Y0237450D01*
X0097700Y0237450D01*
X0097700Y0241850D01*
X0097700Y0241850D01*
X0097700Y0241850D01*
X0097700Y0246250D01*
X0095877Y0246250D01*
X0093300Y0243673D01*
X0094581Y0244954D02*
X0009500Y0244954D01*
X0009500Y0246552D02*
X0099982Y0246552D01*
X0101085Y0245450D02*
X0098800Y0247735D01*
X0098800Y0250965D01*
X0101085Y0253250D01*
X0104315Y0253250D01*
X0106600Y0250965D01*
X0106600Y0247735D01*
X0104315Y0245450D01*
X0101085Y0245450D01*
X0100819Y0244954D02*
X0105288Y0244954D01*
X0105418Y0246552D02*
X0141150Y0246552D01*
X0141150Y0244954D02*
X0110112Y0244954D01*
X0106600Y0248151D02*
X0141150Y0248151D01*
X0141150Y0249749D02*
X0106600Y0249749D01*
X0106218Y0251348D02*
X0141150Y0251348D01*
X0141150Y0252946D02*
X0104619Y0252946D01*
X0100781Y0252946D02*
X0051600Y0252946D01*
X0051600Y0251348D02*
X0099182Y0251348D01*
X0098800Y0249749D02*
X0051115Y0249749D01*
X0049516Y0248151D02*
X0098800Y0248151D01*
X0097700Y0244954D02*
X0097700Y0244954D01*
X0097700Y0243355D02*
X0097700Y0243355D01*
X0097700Y0241850D02*
X0093300Y0241850D01*
X0093300Y0240027D01*
X0095877Y0237450D01*
X0097700Y0237450D01*
X0097700Y0241850D01*
X0097700Y0241757D02*
X0097700Y0241757D01*
X0097700Y0240158D02*
X0097700Y0240158D01*
X0097700Y0238560D02*
X0097700Y0238560D01*
X0094768Y0238560D02*
X0061600Y0238560D01*
X0061600Y0240158D02*
X0093300Y0240158D01*
X0093300Y0241757D02*
X0060809Y0241757D01*
X0054573Y0236961D02*
X0009500Y0236961D01*
X0009500Y0264136D02*
X0235815Y0264136D01*
X0235815Y0265734D02*
X0009500Y0265734D01*
X0009500Y0276924D02*
X0235815Y0276924D01*
X0235815Y0278522D02*
X0009500Y0278522D01*
X0009500Y0280121D02*
X0235815Y0280121D01*
X0235815Y0291311D02*
X0009500Y0291311D01*
X0009500Y0292909D02*
X0235815Y0292909D01*
X0235815Y0294508D02*
X0009500Y0294508D01*
X0009500Y0296106D02*
X0235815Y0296106D01*
X0235815Y0307296D02*
X0141650Y0307296D01*
X0141650Y0308894D02*
X0235815Y0308894D01*
X0235815Y0262537D02*
X0215028Y0262537D01*
X0214315Y0263250D02*
X0211085Y0263250D01*
X0208800Y0260965D01*
X0208800Y0257735D01*
X0211085Y0255450D01*
X0214315Y0255450D01*
X0216600Y0257735D01*
X0216600Y0260965D01*
X0214315Y0263250D01*
X0216600Y0260939D02*
X0235815Y0260939D01*
X0235815Y0259340D02*
X0216600Y0259340D01*
X0216600Y0257742D02*
X0235815Y0257742D01*
X0235815Y0256143D02*
X0215009Y0256143D01*
X0216085Y0255750D02*
X0213800Y0253465D01*
X0213800Y0250235D01*
X0216085Y0247950D01*
X0219315Y0247950D01*
X0221600Y0250235D01*
X0221600Y0253465D01*
X0219315Y0255750D01*
X0216085Y0255750D01*
X0214879Y0254545D02*
X0210521Y0254545D01*
X0211600Y0253465D02*
X0209315Y0255750D01*
X0206085Y0255750D01*
X0203800Y0253465D01*
X0203800Y0250235D01*
X0206085Y0247950D01*
X0206150Y0247950D01*
X0206150Y0247492D01*
X0178650Y0219992D01*
X0178650Y0189992D01*
X0174362Y0185704D01*
X0174315Y0185750D01*
X0171085Y0185750D01*
X0168800Y0183465D01*
X0168800Y0180235D01*
X0171085Y0177950D01*
X0174315Y0177950D01*
X0176600Y0180235D01*
X0176600Y0183465D01*
X0176554Y0183512D01*
X0180842Y0187800D01*
X0180842Y0187800D01*
X0181750Y0188708D01*
X0181750Y0218708D01*
X0208342Y0245300D01*
X0209250Y0246208D01*
X0209250Y0247950D01*
X0209315Y0247950D01*
X0211600Y0250235D01*
X0211600Y0253465D01*
X0211600Y0252946D02*
X0213800Y0252946D01*
X0213800Y0251348D02*
X0211600Y0251348D01*
X0211115Y0249749D02*
X0214285Y0249749D01*
X0215884Y0248151D02*
X0209516Y0248151D01*
X0209250Y0246552D02*
X0235815Y0246552D01*
X0235815Y0244954D02*
X0207996Y0244954D01*
X0206397Y0243355D02*
X0235815Y0243355D01*
X0235815Y0241757D02*
X0204799Y0241757D01*
X0205877Y0241250D02*
X0203300Y0238673D01*
X0203300Y0236850D01*
X0207700Y0236850D01*
X0207700Y0236850D01*
X0207700Y0241250D01*
X0209523Y0241250D01*
X0212100Y0238673D01*
X0212100Y0236850D01*
X0207700Y0236850D01*
X0207700Y0236850D01*
X0207700Y0236850D01*
X0207700Y0241250D01*
X0205877Y0241250D01*
X0204786Y0240158D02*
X0203200Y0240158D01*
X0203300Y0238560D02*
X0201602Y0238560D01*
X0200003Y0236961D02*
X0203300Y0236961D01*
X0203300Y0236850D02*
X0203300Y0235027D01*
X0205877Y0232450D01*
X0207700Y0232450D01*
X0209523Y0232450D01*
X0212100Y0235027D01*
X0212100Y0236850D01*
X0207700Y0236850D01*
X0207700Y0232450D01*
X0207700Y0236850D01*
X0207700Y0236850D01*
X0203300Y0236850D01*
X0203300Y0235363D02*
X0198405Y0235363D01*
X0196806Y0233764D02*
X0204563Y0233764D01*
X0207700Y0233764D02*
X0207700Y0233764D01*
X0207700Y0235363D02*
X0207700Y0235363D01*
X0207700Y0236961D02*
X0207700Y0236961D01*
X0207700Y0238560D02*
X0207700Y0238560D01*
X0207700Y0240158D02*
X0207700Y0240158D01*
X0210614Y0240158D02*
X0235815Y0240158D01*
X0235815Y0238560D02*
X0212100Y0238560D01*
X0212100Y0236961D02*
X0235815Y0236961D01*
X0235815Y0235363D02*
X0212100Y0235363D01*
X0210837Y0233764D02*
X0235815Y0233764D01*
X0235815Y0232166D02*
X0195208Y0232166D01*
X0193609Y0230567D02*
X0235815Y0230567D01*
X0235815Y0228969D02*
X0192011Y0228969D01*
X0190412Y0227370D02*
X0235815Y0227370D01*
X0235815Y0225772D02*
X0188814Y0225772D01*
X0187215Y0224173D02*
X0194508Y0224173D01*
X0193800Y0223465D02*
X0193800Y0220235D01*
X0196085Y0217950D01*
X0199315Y0217950D01*
X0201600Y0220235D01*
X0201600Y0223465D01*
X0199315Y0225750D01*
X0196085Y0225750D01*
X0193800Y0223465D01*
X0193800Y0222575D02*
X0185617Y0222575D01*
X0184018Y0220976D02*
X0193800Y0220976D01*
X0194657Y0219378D02*
X0182420Y0219378D01*
X0181750Y0217779D02*
X0235815Y0217779D01*
X0235815Y0216181D02*
X0181750Y0216181D01*
X0181750Y0214582D02*
X0235815Y0214582D01*
X0235815Y0212984D02*
X0181750Y0212984D01*
X0181750Y0211385D02*
X0235815Y0211385D01*
X0235815Y0209787D02*
X0210279Y0209787D01*
X0209315Y0210750D02*
X0206085Y0210750D01*
X0203800Y0208465D01*
X0203800Y0205235D01*
X0206085Y0202950D01*
X0209315Y0202950D01*
X0211600Y0205235D01*
X0211600Y0208465D01*
X0209315Y0210750D01*
X0211600Y0208188D02*
X0235815Y0208188D01*
X0235815Y0206589D02*
X0211600Y0206589D01*
X0211356Y0204991D02*
X0235815Y0204991D01*
X0235815Y0203392D02*
X0209758Y0203392D01*
X0205642Y0203392D02*
X0191600Y0203392D01*
X0191600Y0203465D02*
X0189315Y0205750D01*
X0186085Y0205750D01*
X0183800Y0203465D01*
X0183800Y0200235D01*
X0186085Y0197950D01*
X0186150Y0197950D01*
X0186150Y0168250D01*
X0186085Y0168250D01*
X0183800Y0165965D01*
X0183800Y0162735D01*
X0186085Y0160450D01*
X0189315Y0160450D01*
X0191600Y0162735D01*
X0191600Y0165965D01*
X0189315Y0168250D01*
X0189250Y0168250D01*
X0189250Y0197950D01*
X0189315Y0197950D01*
X0191600Y0200235D01*
X0191600Y0203465D01*
X0191600Y0201794D02*
X0235815Y0201794D01*
X0235815Y0200195D02*
X0191561Y0200195D01*
X0189962Y0198597D02*
X0235815Y0198597D01*
X0235815Y0196998D02*
X0189250Y0196998D01*
X0189250Y0195400D02*
X0235815Y0195400D01*
X0235815Y0193801D02*
X0189250Y0193801D01*
X0189250Y0192203D02*
X0200037Y0192203D01*
X0201085Y0193250D02*
X0198800Y0190965D01*
X0198800Y0187735D01*
X0201085Y0185450D01*
X0204315Y0185450D01*
X0206600Y0187735D01*
X0206600Y0190965D01*
X0204315Y0193250D01*
X0201085Y0193250D01*
X0198800Y0190604D02*
X0189250Y0190604D01*
X0189250Y0189006D02*
X0198800Y0189006D01*
X0199127Y0187407D02*
X0189250Y0187407D01*
X0189250Y0185809D02*
X0200726Y0185809D01*
X0199315Y0185750D02*
X0196085Y0185750D01*
X0193800Y0183465D01*
X0193800Y0180235D01*
X0196085Y0177950D01*
X0199315Y0177950D01*
X0201600Y0180235D01*
X0201600Y0183465D01*
X0199315Y0185750D01*
X0200855Y0184210D02*
X0204545Y0184210D01*
X0203800Y0183465D02*
X0203800Y0180235D01*
X0206085Y0177950D01*
X0209315Y0177950D01*
X0209362Y0177996D01*
X0218650Y0168708D01*
X0218650Y0160750D01*
X0216085Y0160750D01*
X0213800Y0158465D01*
X0213800Y0155235D01*
X0216085Y0152950D01*
X0219315Y0152950D01*
X0221600Y0155235D01*
X0221600Y0158465D01*
X0221554Y0158512D01*
X0221750Y0158708D01*
X0221750Y0169992D01*
X0220842Y0170900D01*
X0211554Y0180188D01*
X0211600Y0180235D01*
X0211600Y0183465D01*
X0209315Y0185750D01*
X0206085Y0185750D01*
X0203800Y0183465D01*
X0203800Y0182612D02*
X0201600Y0182612D01*
X0201600Y0181013D02*
X0203800Y0181013D01*
X0204620Y0179415D02*
X0200780Y0179415D01*
X0194620Y0179415D02*
X0189250Y0179415D01*
X0189250Y0181013D02*
X0193800Y0181013D01*
X0193800Y0182612D02*
X0189250Y0182612D01*
X0189250Y0184210D02*
X0194545Y0184210D01*
X0189250Y0177816D02*
X0209542Y0177816D01*
X0211140Y0176218D02*
X0189250Y0176218D01*
X0189250Y0174619D02*
X0212739Y0174619D01*
X0214337Y0173021D02*
X0189250Y0173021D01*
X0189250Y0171422D02*
X0215936Y0171422D01*
X0217534Y0169824D02*
X0189250Y0169824D01*
X0189340Y0168225D02*
X0211060Y0168225D01*
X0211085Y0168250D02*
X0208800Y0165965D01*
X0208800Y0162735D01*
X0211085Y0160450D01*
X0214315Y0160450D01*
X0216600Y0162735D01*
X0216600Y0165965D01*
X0214315Y0168250D01*
X0211085Y0168250D01*
X0209461Y0166627D02*
X0190939Y0166627D01*
X0191600Y0165028D02*
X0208800Y0165028D01*
X0208800Y0163430D02*
X0191600Y0163430D01*
X0190697Y0161831D02*
X0209703Y0161831D01*
X0209315Y0160750D02*
X0206085Y0160750D01*
X0203800Y0158465D01*
X0203800Y0155235D01*
X0203846Y0155188D01*
X0194558Y0145900D01*
X0193650Y0144992D01*
X0193650Y0129992D01*
X0182058Y0118400D01*
X0176600Y0118400D01*
X0176600Y0118465D01*
X0174315Y0120750D01*
X0171085Y0120750D01*
X0168800Y0118465D01*
X0168800Y0115235D01*
X0171085Y0112950D01*
X0174315Y0112950D01*
X0176600Y0115235D01*
X0176600Y0115300D01*
X0183342Y0115300D01*
X0184250Y0116208D01*
X0195842Y0127800D01*
X0195842Y0127800D01*
X0196038Y0127996D01*
X0196085Y0127950D01*
X0199315Y0127950D01*
X0201600Y0130235D01*
X0201600Y0133465D01*
X0199315Y0135750D01*
X0196750Y0135750D01*
X0196750Y0143708D01*
X0206038Y0152996D01*
X0206085Y0152950D01*
X0209315Y0152950D01*
X0211600Y0155235D01*
X0211600Y0158465D01*
X0209315Y0160750D01*
X0209833Y0160233D02*
X0215567Y0160233D01*
X0215697Y0161831D02*
X0218650Y0161831D01*
X0218650Y0163430D02*
X0216600Y0163430D01*
X0216600Y0165028D02*
X0218650Y0165028D01*
X0218650Y0166627D02*
X0215939Y0166627D01*
X0214340Y0168225D02*
X0218650Y0168225D01*
X0221750Y0168225D02*
X0235815Y0168225D01*
X0235815Y0166627D02*
X0221750Y0166627D01*
X0221750Y0165028D02*
X0235815Y0165028D01*
X0235815Y0163430D02*
X0221750Y0163430D01*
X0221750Y0161831D02*
X0235815Y0161831D01*
X0235815Y0160233D02*
X0221750Y0160233D01*
X0221676Y0158634D02*
X0235815Y0158634D01*
X0235815Y0157036D02*
X0221600Y0157036D01*
X0221600Y0155437D02*
X0235815Y0155437D01*
X0235815Y0153839D02*
X0220204Y0153839D01*
X0215196Y0153839D02*
X0210204Y0153839D01*
X0211600Y0155437D02*
X0213800Y0155437D01*
X0213800Y0157036D02*
X0211600Y0157036D01*
X0211431Y0158634D02*
X0213969Y0158634D01*
X0221750Y0169824D02*
X0235815Y0169824D01*
X0235815Y0171422D02*
X0220320Y0171422D01*
X0218721Y0173021D02*
X0235815Y0173021D01*
X0235815Y0174619D02*
X0217123Y0174619D01*
X0215524Y0176218D02*
X0235815Y0176218D01*
X0235815Y0177816D02*
X0213926Y0177816D01*
X0212327Y0179415D02*
X0235815Y0179415D01*
X0235815Y0181013D02*
X0211600Y0181013D01*
X0211600Y0182612D02*
X0235815Y0182612D01*
X0235815Y0184210D02*
X0210855Y0184210D01*
X0206273Y0187407D02*
X0235815Y0187407D01*
X0235815Y0185809D02*
X0204674Y0185809D01*
X0206600Y0189006D02*
X0235815Y0189006D01*
X0235815Y0190604D02*
X0206600Y0190604D01*
X0205363Y0192203D02*
X0235815Y0192203D01*
X0235815Y0219378D02*
X0200743Y0219378D01*
X0201600Y0220976D02*
X0235815Y0220976D01*
X0235815Y0222575D02*
X0201600Y0222575D01*
X0200892Y0224173D02*
X0235815Y0224173D01*
X0235815Y0248151D02*
X0219516Y0248151D01*
X0221115Y0249749D02*
X0235815Y0249749D01*
X0235815Y0251348D02*
X0221600Y0251348D01*
X0221600Y0252946D02*
X0235815Y0252946D01*
X0235815Y0254545D02*
X0220521Y0254545D01*
X0210391Y0256143D02*
X0190009Y0256143D01*
X0189315Y0255450D02*
X0191600Y0257735D01*
X0191600Y0260965D01*
X0189315Y0263250D01*
X0186085Y0263250D01*
X0183800Y0260965D01*
X0183800Y0257735D01*
X0186085Y0255450D01*
X0189315Y0255450D01*
X0189879Y0254545D02*
X0186228Y0254545D01*
X0187100Y0253673D02*
X0184523Y0256250D01*
X0182700Y0256250D01*
X0182700Y0251850D01*
X0187100Y0251850D01*
X0187100Y0253673D01*
X0187100Y0252946D02*
X0188800Y0252946D01*
X0188800Y0253465D02*
X0188800Y0250235D01*
X0191085Y0247950D01*
X0194315Y0247950D01*
X0196600Y0250235D01*
X0196600Y0253465D01*
X0194315Y0255750D01*
X0191085Y0255750D01*
X0188800Y0253465D01*
X0188800Y0251348D02*
X0187100Y0251348D01*
X0187100Y0251850D02*
X0182700Y0251850D01*
X0182700Y0251850D01*
X0182700Y0251850D01*
X0182700Y0247450D01*
X0184523Y0247450D01*
X0187100Y0250027D01*
X0187100Y0251850D01*
X0186822Y0249749D02*
X0189285Y0249749D01*
X0190884Y0248151D02*
X0185223Y0248151D01*
X0182700Y0248151D02*
X0182700Y0248151D01*
X0182700Y0247450D02*
X0182700Y0251850D01*
X0182700Y0251850D01*
X0182700Y0251850D01*
X0178300Y0251850D01*
X0178300Y0253673D01*
X0180877Y0256250D01*
X0182700Y0256250D01*
X0182700Y0251850D01*
X0178300Y0251850D01*
X0178300Y0250027D01*
X0180877Y0247450D01*
X0182700Y0247450D01*
X0182700Y0249749D02*
X0182700Y0249749D01*
X0182700Y0251348D02*
X0182700Y0251348D01*
X0182700Y0252946D02*
X0182700Y0252946D01*
X0182700Y0254545D02*
X0182700Y0254545D01*
X0182700Y0256143D02*
X0182700Y0256143D01*
X0184629Y0256143D02*
X0185391Y0256143D01*
X0183800Y0257742D02*
X0166600Y0257742D01*
X0166600Y0259340D02*
X0183800Y0259340D01*
X0183800Y0260939D02*
X0166600Y0260939D01*
X0165028Y0262537D02*
X0185372Y0262537D01*
X0190028Y0262537D02*
X0210372Y0262537D01*
X0208800Y0260939D02*
X0191600Y0260939D01*
X0191600Y0259340D02*
X0208800Y0259340D01*
X0208800Y0257742D02*
X0191600Y0257742D01*
X0195521Y0254545D02*
X0204879Y0254545D01*
X0203800Y0252946D02*
X0196600Y0252946D01*
X0196600Y0251348D02*
X0203800Y0251348D01*
X0204285Y0249749D02*
X0196115Y0249749D01*
X0194516Y0248151D02*
X0205884Y0248151D01*
X0205210Y0246552D02*
X0159250Y0246552D01*
X0159250Y0247950D02*
X0159250Y0240750D01*
X0159315Y0240750D01*
X0161600Y0238465D01*
X0161600Y0235235D01*
X0159315Y0232950D01*
X0159250Y0232950D01*
X0159250Y0205750D01*
X0159315Y0205750D01*
X0161600Y0203465D01*
X0161600Y0200235D01*
X0159315Y0197950D01*
X0156085Y0197950D01*
X0153800Y0200235D01*
X0153800Y0203465D01*
X0156085Y0205750D01*
X0156150Y0205750D01*
X0156150Y0232950D01*
X0156085Y0232950D01*
X0153800Y0235235D01*
X0153800Y0238465D01*
X0156085Y0240750D01*
X0156150Y0240750D01*
X0156150Y0247950D01*
X0156085Y0247950D01*
X0153800Y0250235D01*
X0153800Y0253465D01*
X0156085Y0255750D01*
X0159315Y0255750D01*
X0161600Y0253465D01*
X0161600Y0250235D01*
X0159315Y0247950D01*
X0159250Y0247950D01*
X0159516Y0248151D02*
X0165884Y0248151D01*
X0166085Y0247950D02*
X0169315Y0247950D01*
X0171600Y0250235D01*
X0171600Y0253465D01*
X0169315Y0255750D01*
X0166085Y0255750D01*
X0163800Y0253465D01*
X0163800Y0250235D01*
X0166085Y0247950D01*
X0164285Y0249749D02*
X0161115Y0249749D01*
X0161600Y0251348D02*
X0163800Y0251348D01*
X0163800Y0252946D02*
X0161600Y0252946D01*
X0160521Y0254545D02*
X0164879Y0254545D01*
X0165009Y0256143D02*
X0180771Y0256143D01*
X0179172Y0254545D02*
X0170521Y0254545D01*
X0171600Y0252946D02*
X0178300Y0252946D01*
X0178300Y0251348D02*
X0171600Y0251348D01*
X0171115Y0249749D02*
X0178578Y0249749D01*
X0180177Y0248151D02*
X0169516Y0248151D01*
X0159250Y0244954D02*
X0203612Y0244954D01*
X0202013Y0243355D02*
X0159250Y0243355D01*
X0159250Y0241757D02*
X0200415Y0241757D01*
X0198816Y0240158D02*
X0190614Y0240158D01*
X0189523Y0241250D02*
X0187700Y0241250D01*
X0187700Y0236850D01*
X0192100Y0236850D01*
X0192100Y0238673D01*
X0189523Y0241250D01*
X0187700Y0241250D02*
X0185877Y0241250D01*
X0183300Y0238673D01*
X0183300Y0236850D01*
X0187700Y0236850D01*
X0187700Y0236850D01*
X0187700Y0236850D01*
X0192100Y0236850D01*
X0192100Y0235027D01*
X0189523Y0232450D01*
X0187700Y0232450D01*
X0187700Y0236850D01*
X0187700Y0236850D01*
X0187700Y0236850D01*
X0187700Y0241250D01*
X0187700Y0240158D02*
X0187700Y0240158D01*
X0187700Y0238560D02*
X0187700Y0238560D01*
X0187700Y0236961D02*
X0187700Y0236961D01*
X0187700Y0236850D02*
X0183300Y0236850D01*
X0183300Y0235027D01*
X0185877Y0232450D01*
X0187700Y0232450D01*
X0187700Y0236850D01*
X0187700Y0235363D02*
X0187700Y0235363D01*
X0187700Y0233764D02*
X0187700Y0233764D01*
X0190837Y0233764D02*
X0192422Y0233764D01*
X0192100Y0235363D02*
X0194021Y0235363D01*
X0195619Y0236961D02*
X0192100Y0236961D01*
X0192100Y0238560D02*
X0197218Y0238560D01*
X0190824Y0232166D02*
X0159250Y0232166D01*
X0159250Y0230567D02*
X0189225Y0230567D01*
X0187627Y0228969D02*
X0159250Y0228969D01*
X0159250Y0227370D02*
X0186028Y0227370D01*
X0184430Y0225772D02*
X0159250Y0225772D01*
X0159250Y0224173D02*
X0164508Y0224173D01*
X0163800Y0223465D02*
X0166085Y0225750D01*
X0169315Y0225750D01*
X0171600Y0223465D01*
X0171600Y0220235D01*
X0169315Y0217950D01*
X0166085Y0217950D01*
X0163800Y0220235D01*
X0163800Y0223465D01*
X0163800Y0222575D02*
X0159250Y0222575D01*
X0159250Y0220976D02*
X0163800Y0220976D01*
X0164657Y0219378D02*
X0159250Y0219378D01*
X0159250Y0217779D02*
X0178650Y0217779D01*
X0178650Y0216181D02*
X0159250Y0216181D01*
X0159250Y0214582D02*
X0178650Y0214582D01*
X0178650Y0212984D02*
X0159250Y0212984D01*
X0159250Y0211385D02*
X0178650Y0211385D01*
X0178650Y0209787D02*
X0159250Y0209787D01*
X0159250Y0208188D02*
X0178650Y0208188D01*
X0178650Y0206589D02*
X0159250Y0206589D01*
X0160074Y0204991D02*
X0178650Y0204991D01*
X0178650Y0203392D02*
X0161600Y0203392D01*
X0161600Y0201794D02*
X0178650Y0201794D01*
X0178650Y0200195D02*
X0161561Y0200195D01*
X0159962Y0198597D02*
X0178650Y0198597D01*
X0178650Y0196998D02*
X0146600Y0196998D01*
X0146600Y0198465D02*
X0146600Y0195235D01*
X0144315Y0192950D01*
X0141085Y0192950D01*
X0138800Y0195235D01*
X0138800Y0198465D01*
X0141085Y0200750D01*
X0144315Y0200750D01*
X0146600Y0198465D01*
X0146468Y0198597D02*
X0155438Y0198597D01*
X0153839Y0200195D02*
X0144870Y0200195D01*
X0146600Y0195400D02*
X0178650Y0195400D01*
X0178650Y0193801D02*
X0145167Y0193801D01*
X0140233Y0193801D02*
X0110167Y0193801D01*
X0109315Y0192950D02*
X0106085Y0192950D01*
X0103800Y0195235D01*
X0103800Y0198465D01*
X0106085Y0200750D01*
X0109315Y0200750D01*
X0111600Y0198465D01*
X0111600Y0195235D01*
X0109315Y0192950D01*
X0111600Y0195400D02*
X0138800Y0195400D01*
X0138800Y0196998D02*
X0111600Y0196998D01*
X0111468Y0198597D02*
X0138932Y0198597D01*
X0140530Y0200195D02*
X0109870Y0200195D01*
X0105530Y0200195D02*
X0094870Y0200195D01*
X0094315Y0200750D02*
X0091085Y0200750D01*
X0088800Y0198465D01*
X0088800Y0195235D01*
X0091085Y0192950D01*
X0094315Y0192950D01*
X0096600Y0195235D01*
X0096600Y0198465D01*
X0094315Y0200750D01*
X0096468Y0198597D02*
X0103932Y0198597D01*
X0103800Y0196998D02*
X0096600Y0196998D01*
X0096600Y0195400D02*
X0103800Y0195400D01*
X0105233Y0193801D02*
X0095167Y0193801D01*
X0090233Y0193801D02*
X0075874Y0193801D01*
X0077100Y0195027D02*
X0074523Y0192450D01*
X0072700Y0192450D01*
X0072700Y0196850D01*
X0072700Y0196850D01*
X0072700Y0201250D01*
X0074523Y0201250D01*
X0077100Y0198673D01*
X0077100Y0196850D01*
X0072700Y0196850D01*
X0072700Y0196850D01*
X0072700Y0196850D01*
X0068300Y0196850D01*
X0068300Y0198673D01*
X0070877Y0201250D01*
X0072700Y0201250D01*
X0072700Y0196850D01*
X0077100Y0196850D01*
X0077100Y0195027D01*
X0077100Y0195400D02*
X0088800Y0195400D01*
X0088800Y0196998D02*
X0077100Y0196998D01*
X0077100Y0198597D02*
X0088932Y0198597D01*
X0090530Y0200195D02*
X0075577Y0200195D01*
X0072700Y0200195D02*
X0072700Y0200195D01*
X0072700Y0198597D02*
X0072700Y0198597D01*
X0072700Y0196998D02*
X0072700Y0196998D01*
X0072700Y0196850D02*
X0068300Y0196850D01*
X0068300Y0195027D01*
X0070877Y0192450D01*
X0072700Y0192450D01*
X0072700Y0196850D01*
X0072700Y0196850D01*
X0072700Y0195400D02*
X0072700Y0195400D01*
X0072700Y0193801D02*
X0072700Y0193801D01*
X0069526Y0193801D02*
X0065167Y0193801D01*
X0064315Y0192950D02*
X0066600Y0195235D01*
X0066600Y0198465D01*
X0064315Y0200750D01*
X0061085Y0200750D01*
X0058800Y0198465D01*
X0058800Y0195235D01*
X0061085Y0192950D01*
X0064315Y0192950D01*
X0066600Y0195400D02*
X0068300Y0195400D01*
X0068300Y0196998D02*
X0066600Y0196998D01*
X0066468Y0198597D02*
X0068300Y0198597D01*
X0069823Y0200195D02*
X0064870Y0200195D01*
X0060530Y0200195D02*
X0034870Y0200195D01*
X0034315Y0200750D02*
X0036600Y0198465D01*
X0036600Y0195235D01*
X0034315Y0192950D01*
X0031085Y0192950D01*
X0028800Y0195235D01*
X0028800Y0198465D01*
X0031085Y0200750D01*
X0034315Y0200750D01*
X0036468Y0198597D02*
X0058932Y0198597D01*
X0058800Y0196998D02*
X0036600Y0196998D01*
X0036600Y0195400D02*
X0058800Y0195400D01*
X0060233Y0193801D02*
X0035167Y0193801D01*
X0030233Y0193801D02*
X0009500Y0193801D01*
X0009500Y0192203D02*
X0165037Y0192203D01*
X0166085Y0193250D02*
X0163800Y0190965D01*
X0163800Y0187735D01*
X0166085Y0185450D01*
X0169315Y0185450D01*
X0171600Y0187735D01*
X0171600Y0190965D01*
X0169315Y0193250D01*
X0166085Y0193250D01*
X0163800Y0190604D02*
X0009500Y0190604D01*
X0009500Y0189006D02*
X0163800Y0189006D01*
X0164127Y0187407D02*
X0009500Y0187407D01*
X0009500Y0185809D02*
X0120436Y0185809D01*
X0120877Y0186250D02*
X0118300Y0183673D01*
X0118300Y0181850D01*
X0122700Y0181850D01*
X0122700Y0181850D01*
X0122700Y0186250D01*
X0124523Y0186250D01*
X0127100Y0183673D01*
X0127100Y0181850D01*
X0122700Y0181850D01*
X0122700Y0181850D01*
X0122700Y0181850D01*
X0122700Y0186250D01*
X0120877Y0186250D01*
X0122700Y0185809D02*
X0122700Y0185809D01*
X0122700Y0184210D02*
X0122700Y0184210D01*
X0122700Y0182612D02*
X0122700Y0182612D01*
X0122700Y0181850D02*
X0118300Y0181850D01*
X0118300Y0180027D01*
X0120877Y0177450D01*
X0122700Y0177450D01*
X0124523Y0177450D01*
X0127100Y0180027D01*
X0127100Y0181850D01*
X0122700Y0181850D01*
X0122700Y0177450D01*
X0122700Y0181850D01*
X0122700Y0181850D01*
X0122700Y0181013D02*
X0122700Y0181013D01*
X0122700Y0179415D02*
X0122700Y0179415D01*
X0122700Y0177816D02*
X0122700Y0177816D01*
X0124889Y0177816D02*
X0186150Y0177816D01*
X0186150Y0176218D02*
X0058775Y0176218D01*
X0058775Y0177660D02*
X0058775Y0174430D01*
X0056490Y0172145D01*
X0053260Y0172145D01*
X0050975Y0174430D01*
X0050975Y0177660D01*
X0053260Y0179945D01*
X0056490Y0179945D01*
X0058775Y0177660D01*
X0058619Y0177816D02*
X0120511Y0177816D01*
X0118913Y0179415D02*
X0115780Y0179415D01*
X0116600Y0180235D02*
X0114315Y0177950D01*
X0111085Y0177950D01*
X0108800Y0180235D01*
X0108800Y0183465D01*
X0111085Y0185750D01*
X0114315Y0185750D01*
X0116600Y0183465D01*
X0116600Y0180235D01*
X0116600Y0181013D02*
X0118300Y0181013D01*
X0118300Y0182612D02*
X0116600Y0182612D01*
X0115855Y0184210D02*
X0118838Y0184210D01*
X0124964Y0185809D02*
X0165726Y0185809D01*
X0164315Y0185750D02*
X0161085Y0185750D01*
X0158800Y0183465D01*
X0158800Y0180235D01*
X0161085Y0177950D01*
X0164315Y0177950D01*
X0166600Y0180235D01*
X0166600Y0183465D01*
X0164315Y0185750D01*
X0165855Y0184210D02*
X0169545Y0184210D01*
X0169674Y0185809D02*
X0174467Y0185809D01*
X0176065Y0187407D02*
X0171273Y0187407D01*
X0171600Y0189006D02*
X0177664Y0189006D01*
X0178650Y0190604D02*
X0171600Y0190604D01*
X0170363Y0192203D02*
X0178650Y0192203D01*
X0180449Y0187407D02*
X0186150Y0187407D01*
X0186150Y0185809D02*
X0178851Y0185809D01*
X0177252Y0184210D02*
X0186150Y0184210D01*
X0186150Y0182612D02*
X0176600Y0182612D01*
X0176600Y0181013D02*
X0186150Y0181013D01*
X0186150Y0179415D02*
X0175780Y0179415D01*
X0169620Y0179415D02*
X0165780Y0179415D01*
X0166600Y0181013D02*
X0168800Y0181013D01*
X0168800Y0182612D02*
X0166600Y0182612D01*
X0159545Y0184210D02*
X0126562Y0184210D01*
X0127100Y0182612D02*
X0158800Y0182612D01*
X0158800Y0181013D02*
X0127100Y0181013D01*
X0126487Y0179415D02*
X0159620Y0179415D01*
X0159315Y0170750D02*
X0156085Y0170750D01*
X0153800Y0168465D01*
X0153800Y0165235D01*
X0156085Y0162950D01*
X0159315Y0162950D01*
X0161600Y0165235D01*
X0161600Y0168465D01*
X0159315Y0170750D01*
X0160242Y0169824D02*
X0186150Y0169824D01*
X0186150Y0171422D02*
X0009500Y0171422D01*
X0009500Y0169824D02*
X0053933Y0169824D01*
X0054870Y0170760D02*
X0052585Y0168475D01*
X0052585Y0165245D01*
X0054870Y0162960D01*
X0058100Y0162960D01*
X0060385Y0165245D01*
X0060385Y0168475D01*
X0058100Y0170760D01*
X0054870Y0170760D01*
X0052384Y0173021D02*
X0028073Y0173021D01*
X0029275Y0174222D02*
X0029275Y0176045D01*
X0029275Y0177868D01*
X0026698Y0180445D01*
X0024875Y0180445D01*
X0024875Y0176045D01*
X0029275Y0176045D01*
X0024875Y0176045D01*
X0024875Y0176045D01*
X0024875Y0176045D01*
X0024875Y0171645D01*
X0026698Y0171645D01*
X0029275Y0174222D01*
X0029275Y0174619D02*
X0050975Y0174619D01*
X0050975Y0176218D02*
X0029275Y0176218D01*
X0029275Y0177816D02*
X0051131Y0177816D01*
X0052729Y0179415D02*
X0027728Y0179415D01*
X0024875Y0179415D02*
X0024875Y0179415D01*
X0024875Y0180445D02*
X0023052Y0180445D01*
X0020475Y0177868D01*
X0020475Y0176045D01*
X0024875Y0176045D01*
X0024875Y0176045D01*
X0024875Y0176045D01*
X0024875Y0180445D01*
X0024875Y0177816D02*
X0024875Y0177816D01*
X0024875Y0176218D02*
X0024875Y0176218D01*
X0024875Y0176045D02*
X0020475Y0176045D01*
X0020475Y0174222D01*
X0023052Y0171645D01*
X0024875Y0171645D01*
X0024875Y0176045D01*
X0024875Y0174619D02*
X0024875Y0174619D01*
X0024875Y0173021D02*
X0024875Y0173021D01*
X0021677Y0173021D02*
X0009500Y0173021D01*
X0009500Y0174619D02*
X0020475Y0174619D01*
X0020475Y0176218D02*
X0009500Y0176218D01*
X0009500Y0177816D02*
X0020475Y0177816D01*
X0022022Y0179415D02*
X0009500Y0179415D01*
X0009500Y0181013D02*
X0078800Y0181013D01*
X0078800Y0180235D02*
X0078800Y0183465D01*
X0081085Y0185750D01*
X0084315Y0185750D01*
X0086600Y0183465D01*
X0086600Y0180235D01*
X0084315Y0177950D01*
X0081085Y0177950D01*
X0078800Y0180235D01*
X0079620Y0179415D02*
X0057021Y0179415D01*
X0058775Y0174619D02*
X0186150Y0174619D01*
X0186150Y0173021D02*
X0057366Y0173021D01*
X0059037Y0169824D02*
X0070158Y0169824D01*
X0071085Y0170750D02*
X0068800Y0168465D01*
X0068800Y0165235D01*
X0071085Y0162950D01*
X0074315Y0162950D01*
X0076600Y0165235D01*
X0076600Y0168465D01*
X0074315Y0170750D01*
X0071085Y0170750D01*
X0068800Y0168225D02*
X0060385Y0168225D01*
X0060385Y0166627D02*
X0068800Y0166627D01*
X0069006Y0165028D02*
X0060169Y0165028D01*
X0059870Y0163260D02*
X0057585Y0160975D01*
X0057585Y0157745D01*
X0059870Y0155460D01*
X0063100Y0155460D01*
X0065385Y0157745D01*
X0065385Y0160975D01*
X0063100Y0163260D01*
X0059870Y0163260D01*
X0058570Y0163430D02*
X0070605Y0163430D01*
X0074795Y0163430D02*
X0080605Y0163430D01*
X0081085Y0162950D02*
X0078800Y0165235D01*
X0078800Y0168465D01*
X0081085Y0170750D01*
X0084315Y0170750D01*
X0086600Y0168465D01*
X0086600Y0165235D01*
X0084315Y0162950D01*
X0081085Y0162950D01*
X0079006Y0165028D02*
X0076394Y0165028D01*
X0076600Y0166627D02*
X0078800Y0166627D01*
X0078800Y0168225D02*
X0076600Y0168225D01*
X0075242Y0169824D02*
X0080158Y0169824D01*
X0085242Y0169824D02*
X0109451Y0169824D01*
X0108300Y0168673D02*
X0108300Y0166850D01*
X0112700Y0166850D01*
X0117100Y0166850D01*
X0117100Y0168673D01*
X0114523Y0171250D01*
X0112700Y0171250D01*
X0112700Y0166850D01*
X0112700Y0166850D01*
X0112700Y0166850D01*
X0117100Y0166850D01*
X0117100Y0165027D01*
X0114523Y0162450D01*
X0112700Y0162450D01*
X0112700Y0166850D01*
X0112700Y0166850D01*
X0112700Y0166850D01*
X0112700Y0171250D01*
X0110877Y0171250D01*
X0108300Y0168673D01*
X0108300Y0168225D02*
X0086600Y0168225D01*
X0086600Y0166627D02*
X0108300Y0166627D01*
X0108300Y0166850D02*
X0108300Y0165027D01*
X0110877Y0162450D01*
X0112700Y0162450D01*
X0112700Y0166850D01*
X0108300Y0166850D01*
X0108300Y0165028D02*
X0086394Y0165028D01*
X0084795Y0163430D02*
X0109898Y0163430D01*
X0112700Y0163430D02*
X0112700Y0163430D01*
X0112700Y0165028D02*
X0112700Y0165028D01*
X0112700Y0166627D02*
X0112700Y0166627D01*
X0112700Y0168225D02*
X0112700Y0168225D01*
X0112700Y0169824D02*
X0112700Y0169824D01*
X0115949Y0169824D02*
X0140158Y0169824D01*
X0141085Y0170750D02*
X0138800Y0168465D01*
X0138800Y0165235D01*
X0141085Y0162950D01*
X0144315Y0162950D01*
X0146600Y0165235D01*
X0146600Y0168465D01*
X0144315Y0170750D01*
X0141085Y0170750D01*
X0138800Y0168225D02*
X0117100Y0168225D01*
X0117100Y0166627D02*
X0138800Y0166627D01*
X0139006Y0165028D02*
X0117100Y0165028D01*
X0115502Y0163430D02*
X0140605Y0163430D01*
X0144795Y0163430D02*
X0155605Y0163430D01*
X0154006Y0165028D02*
X0146394Y0165028D01*
X0146600Y0166627D02*
X0153800Y0166627D01*
X0153800Y0168225D02*
X0146600Y0168225D01*
X0145242Y0169824D02*
X0155158Y0169824D01*
X0161600Y0168225D02*
X0186060Y0168225D01*
X0184461Y0166627D02*
X0161600Y0166627D01*
X0161394Y0165028D02*
X0183800Y0165028D01*
X0183800Y0163430D02*
X0159795Y0163430D01*
X0151227Y0153839D02*
X0177497Y0153839D01*
X0178846Y0155188D02*
X0178800Y0155235D01*
X0178800Y0158465D01*
X0181085Y0160750D01*
X0184315Y0160750D01*
X0186600Y0158465D01*
X0186600Y0155235D01*
X0184315Y0152950D01*
X0181085Y0152950D01*
X0181038Y0152996D01*
X0156750Y0128708D01*
X0156750Y0103708D01*
X0151554Y0098512D01*
X0151600Y0098465D01*
X0151600Y0095235D01*
X0149315Y0092950D01*
X0149250Y0092950D01*
X0149250Y0056208D01*
X0146554Y0053512D01*
X0146600Y0053465D01*
X0146600Y0050235D01*
X0144315Y0047950D01*
X0141085Y0047950D01*
X0138800Y0050235D01*
X0138800Y0053465D01*
X0141085Y0055750D01*
X0144315Y0055750D01*
X0144362Y0055704D01*
X0146150Y0057492D01*
X0146150Y0059785D01*
X0144315Y0057950D01*
X0141085Y0057950D01*
X0138800Y0060235D01*
X0138800Y0063465D01*
X0141085Y0065750D01*
X0144315Y0065750D01*
X0146150Y0063915D01*
X0146150Y0092950D01*
X0146085Y0092950D01*
X0143800Y0095235D01*
X0143800Y0098465D01*
X0146085Y0100750D01*
X0149315Y0100750D01*
X0149362Y0100704D01*
X0153650Y0104992D01*
X0153650Y0129992D01*
X0154558Y0130900D01*
X0156608Y0132950D01*
X0156085Y0132950D01*
X0153800Y0135235D01*
X0153800Y0138465D01*
X0156085Y0140750D01*
X0159315Y0140750D01*
X0161600Y0138465D01*
X0161600Y0137942D01*
X0178846Y0155188D01*
X0178800Y0155437D02*
X0149628Y0155437D01*
X0149315Y0155750D02*
X0151600Y0153465D01*
X0151600Y0150235D01*
X0149315Y0147950D01*
X0149250Y0147950D01*
X0149250Y0140750D01*
X0149315Y0140750D01*
X0151600Y0138465D01*
X0151600Y0135235D01*
X0149315Y0132950D01*
X0146085Y0132950D01*
X0143800Y0135235D01*
X0143800Y0138465D01*
X0146085Y0140750D01*
X0146150Y0140750D01*
X0146150Y0147950D01*
X0146085Y0147950D01*
X0143800Y0150235D01*
X0143800Y0153465D01*
X0146085Y0155750D01*
X0149315Y0155750D01*
X0145772Y0155437D02*
X0119628Y0155437D01*
X0119315Y0155750D02*
X0116085Y0155750D01*
X0113800Y0153465D01*
X0113800Y0150235D01*
X0116085Y0147950D01*
X0119315Y0147950D01*
X0121600Y0150235D01*
X0121600Y0153465D01*
X0119315Y0155750D01*
X0121227Y0153839D02*
X0144173Y0153839D01*
X0143800Y0152240D02*
X0121600Y0152240D01*
X0121600Y0150642D02*
X0143800Y0150642D01*
X0144991Y0149043D02*
X0120408Y0149043D01*
X0119523Y0141250D02*
X0117700Y0141250D01*
X0117700Y0136850D01*
X0122100Y0136850D01*
X0122100Y0138673D01*
X0119523Y0141250D01*
X0119722Y0141051D02*
X0146150Y0141051D01*
X0146150Y0142649D02*
X0009500Y0142649D01*
X0009500Y0141051D02*
X0115678Y0141051D01*
X0115877Y0141250D02*
X0113300Y0138673D01*
X0113300Y0136850D01*
X0117700Y0136850D01*
X0117700Y0136850D01*
X0117700Y0136850D01*
X0122100Y0136850D01*
X0122100Y0135027D01*
X0119523Y0132450D01*
X0117700Y0132450D01*
X0117700Y0136850D01*
X0117700Y0136850D01*
X0117700Y0136850D01*
X0117700Y0141250D01*
X0115877Y0141250D01*
X0117700Y0141051D02*
X0117700Y0141051D01*
X0117700Y0139452D02*
X0117700Y0139452D01*
X0117700Y0137853D02*
X0117700Y0137853D01*
X0117700Y0136850D02*
X0113300Y0136850D01*
X0113300Y0135027D01*
X0115877Y0132450D01*
X0117700Y0132450D01*
X0117700Y0136850D01*
X0117700Y0136255D02*
X0117700Y0136255D01*
X0117700Y0134656D02*
X0117700Y0134656D01*
X0117700Y0133058D02*
X0117700Y0133058D01*
X0120130Y0133058D02*
X0145977Y0133058D01*
X0144378Y0134656D02*
X0121729Y0134656D01*
X0122100Y0136255D02*
X0143800Y0136255D01*
X0143800Y0137853D02*
X0122100Y0137853D01*
X0121321Y0139452D02*
X0144787Y0139452D01*
X0149250Y0141051D02*
X0164709Y0141051D01*
X0166307Y0142649D02*
X0149250Y0142649D01*
X0149250Y0144248D02*
X0167906Y0144248D01*
X0169504Y0145846D02*
X0149250Y0145846D01*
X0149250Y0147445D02*
X0171103Y0147445D01*
X0172701Y0149043D02*
X0150408Y0149043D01*
X0151600Y0150642D02*
X0174300Y0150642D01*
X0175898Y0152240D02*
X0151600Y0152240D01*
X0146150Y0147445D02*
X0106600Y0147445D01*
X0106600Y0148465D02*
X0104315Y0150750D01*
X0101085Y0150750D01*
X0098800Y0148465D01*
X0098800Y0145235D01*
X0101085Y0142950D01*
X0104315Y0142950D01*
X0106600Y0145235D01*
X0106600Y0148465D01*
X0106022Y0149043D02*
X0114991Y0149043D01*
X0113800Y0150642D02*
X0104424Y0150642D01*
X0100976Y0150642D02*
X0099507Y0150642D01*
X0099315Y0150450D02*
X0101600Y0152735D01*
X0101600Y0155965D01*
X0099315Y0158250D01*
X0096085Y0158250D01*
X0093800Y0155965D01*
X0093800Y0152735D01*
X0096085Y0150450D01*
X0099315Y0150450D01*
X0099378Y0149043D02*
X0096022Y0149043D01*
X0096600Y0148465D02*
X0094315Y0150750D01*
X0091085Y0150750D01*
X0088800Y0148465D01*
X0088800Y0145235D01*
X0091085Y0142950D01*
X0094315Y0142950D01*
X0096600Y0145235D01*
X0096600Y0148465D01*
X0096600Y0147445D02*
X0098800Y0147445D01*
X0098800Y0145846D02*
X0096600Y0145846D01*
X0095613Y0144248D02*
X0099787Y0144248D01*
X0095893Y0150642D02*
X0094424Y0150642D01*
X0094294Y0152240D02*
X0009500Y0152240D01*
X0009500Y0150642D02*
X0070976Y0150642D01*
X0071085Y0150750D02*
X0068800Y0148465D01*
X0068800Y0145235D01*
X0071085Y0142950D01*
X0074315Y0142950D01*
X0076600Y0145235D01*
X0076600Y0148465D01*
X0074315Y0150750D01*
X0071085Y0150750D01*
X0069378Y0149043D02*
X0009500Y0149043D01*
X0009500Y0147445D02*
X0068800Y0147445D01*
X0068800Y0145846D02*
X0009500Y0145846D01*
X0009500Y0144248D02*
X0069787Y0144248D01*
X0075613Y0144248D02*
X0089787Y0144248D01*
X0088800Y0145846D02*
X0076600Y0145846D01*
X0076600Y0147445D02*
X0088800Y0147445D01*
X0089378Y0149043D02*
X0076022Y0149043D01*
X0074424Y0150642D02*
X0090976Y0150642D01*
X0093800Y0153839D02*
X0009500Y0153839D01*
X0009500Y0155437D02*
X0093800Y0155437D01*
X0094870Y0157036D02*
X0064676Y0157036D01*
X0065385Y0158634D02*
X0178969Y0158634D01*
X0178800Y0157036D02*
X0100530Y0157036D01*
X0101600Y0155437D02*
X0115772Y0155437D01*
X0114173Y0153839D02*
X0101600Y0153839D01*
X0101106Y0152240D02*
X0113800Y0152240D01*
X0106600Y0145846D02*
X0146150Y0145846D01*
X0146150Y0144248D02*
X0105613Y0144248D01*
X0114079Y0139452D02*
X0009500Y0139452D01*
X0009500Y0137853D02*
X0113300Y0137853D01*
X0113300Y0136255D02*
X0009500Y0136255D01*
X0009500Y0134656D02*
X0113671Y0134656D01*
X0115270Y0133058D02*
X0009500Y0133058D01*
X0009500Y0131459D02*
X0155117Y0131459D01*
X0155977Y0133058D02*
X0149423Y0133058D01*
X0151022Y0134656D02*
X0154378Y0134656D01*
X0153800Y0136255D02*
X0151600Y0136255D01*
X0151600Y0137853D02*
X0153800Y0137853D01*
X0154787Y0139452D02*
X0150613Y0139452D01*
X0153650Y0129861D02*
X0009500Y0129861D01*
X0009500Y0128262D02*
X0153650Y0128262D01*
X0153650Y0126664D02*
X0009500Y0126664D01*
X0009500Y0125065D02*
X0115400Y0125065D01*
X0116085Y0125750D02*
X0113800Y0123465D01*
X0113800Y0120235D01*
X0116085Y0117950D01*
X0119315Y0117950D01*
X0121600Y0120235D01*
X0121600Y0123465D01*
X0119315Y0125750D01*
X0116085Y0125750D01*
X0113801Y0123467D02*
X0009500Y0123467D01*
X0009500Y0121868D02*
X0085943Y0121868D01*
X0085255Y0121180D02*
X0087540Y0123465D01*
X0090770Y0123465D01*
X0093055Y0121180D01*
X0093055Y0117950D01*
X0090770Y0115665D01*
X0087540Y0115665D01*
X0085255Y0117950D01*
X0085255Y0121180D01*
X0085255Y0120270D02*
X0074796Y0120270D01*
X0074315Y0120750D02*
X0071085Y0120750D01*
X0068800Y0118465D01*
X0068800Y0115235D01*
X0071085Y0112950D01*
X0074315Y0112950D01*
X0076600Y0115235D01*
X0076600Y0118465D01*
X0074315Y0120750D01*
X0076394Y0118671D02*
X0085255Y0118671D01*
X0086132Y0117073D02*
X0076600Y0117073D01*
X0076600Y0115474D02*
X0081342Y0115474D01*
X0082332Y0116465D02*
X0079755Y0113888D01*
X0079755Y0112065D01*
X0084155Y0112065D01*
X0088555Y0112065D01*
X0088555Y0113888D01*
X0085978Y0116465D01*
X0084155Y0116465D01*
X0084155Y0112065D01*
X0084155Y0112065D01*
X0084155Y0112065D01*
X0088555Y0112065D01*
X0088555Y0110242D01*
X0085978Y0107665D01*
X0084155Y0107665D01*
X0084155Y0112065D01*
X0084155Y0112065D01*
X0084155Y0112065D01*
X0084155Y0116465D01*
X0082332Y0116465D01*
X0084155Y0115474D02*
X0084155Y0115474D01*
X0084155Y0113876D02*
X0084155Y0113876D01*
X0084155Y0112277D02*
X0084155Y0112277D01*
X0084155Y0112065D02*
X0079755Y0112065D01*
X0079755Y0110242D01*
X0082332Y0107665D01*
X0084155Y0107665D01*
X0084155Y0112065D01*
X0084155Y0110679D02*
X0084155Y0110679D01*
X0084155Y0109080D02*
X0084155Y0109080D01*
X0087393Y0109080D02*
X0091624Y0109080D01*
X0092540Y0108165D02*
X0095770Y0108165D01*
X0098055Y0110450D01*
X0098055Y0113680D01*
X0095770Y0115965D01*
X0092540Y0115965D01*
X0090255Y0113680D01*
X0090255Y0110450D01*
X0092540Y0108165D01*
X0090255Y0110679D02*
X0088555Y0110679D01*
X0088555Y0112277D02*
X0090255Y0112277D01*
X0090450Y0113876D02*
X0088555Y0113876D01*
X0086968Y0115474D02*
X0092049Y0115474D01*
X0092178Y0117073D02*
X0153650Y0117073D01*
X0153650Y0118671D02*
X0150037Y0118671D01*
X0149315Y0117950D02*
X0151600Y0120235D01*
X0151600Y0123465D01*
X0149315Y0125750D01*
X0146085Y0125750D01*
X0143800Y0123465D01*
X0143800Y0120235D01*
X0146085Y0117950D01*
X0149315Y0117950D01*
X0151600Y0120270D02*
X0153650Y0120270D01*
X0153650Y0121868D02*
X0151600Y0121868D01*
X0151599Y0123467D02*
X0153650Y0123467D01*
X0153650Y0125065D02*
X0150000Y0125065D01*
X0145400Y0125065D02*
X0120000Y0125065D01*
X0121599Y0123467D02*
X0143801Y0123467D01*
X0143800Y0121868D02*
X0121600Y0121868D01*
X0121600Y0120270D02*
X0143800Y0120270D01*
X0145363Y0118671D02*
X0120037Y0118671D01*
X0115363Y0118671D02*
X0093055Y0118671D01*
X0093055Y0120270D02*
X0113800Y0120270D01*
X0113800Y0121868D02*
X0092367Y0121868D01*
X0096261Y0115474D02*
X0153650Y0115474D01*
X0153650Y0113876D02*
X0097860Y0113876D01*
X0098055Y0112277D02*
X0153650Y0112277D01*
X0153650Y0110679D02*
X0098055Y0110679D01*
X0096686Y0109080D02*
X0153650Y0109080D01*
X0153650Y0107482D02*
X0009500Y0107482D01*
X0009500Y0109080D02*
X0080917Y0109080D01*
X0079755Y0110679D02*
X0009500Y0110679D01*
X0009500Y0112277D02*
X0079755Y0112277D01*
X0079755Y0113876D02*
X0075241Y0113876D01*
X0070159Y0113876D02*
X0009500Y0113876D01*
X0009500Y0115474D02*
X0068800Y0115474D01*
X0068800Y0117073D02*
X0009500Y0117073D01*
X0009500Y0118671D02*
X0069006Y0118671D01*
X0070604Y0120270D02*
X0009500Y0120270D01*
X0009500Y0105883D02*
X0153650Y0105883D01*
X0152943Y0104285D02*
X0009500Y0104285D01*
X0009500Y0102686D02*
X0151344Y0102686D01*
X0149746Y0101088D02*
X0119685Y0101088D01*
X0119523Y0101250D02*
X0117700Y0101250D01*
X0117700Y0096850D01*
X0122100Y0096850D01*
X0122100Y0098673D01*
X0119523Y0101250D01*
X0117700Y0101250D02*
X0115877Y0101250D01*
X0113300Y0098673D01*
X0113300Y0096850D01*
X0117700Y0096850D01*
X0117700Y0096850D01*
X0117700Y0096850D01*
X0122100Y0096850D01*
X0122100Y0095027D01*
X0119523Y0092450D01*
X0117700Y0092450D01*
X0117700Y0096850D01*
X0117700Y0096850D01*
X0117700Y0096850D01*
X0117700Y0101250D01*
X0117700Y0101088D02*
X0117700Y0101088D01*
X0117700Y0099489D02*
X0117700Y0099489D01*
X0117700Y0097891D02*
X0117700Y0097891D01*
X0117700Y0096850D02*
X0113300Y0096850D01*
X0113300Y0095027D01*
X0115877Y0092450D01*
X0117700Y0092450D01*
X0117700Y0096850D01*
X0117700Y0096292D02*
X0117700Y0096292D01*
X0117700Y0094694D02*
X0117700Y0094694D01*
X0117700Y0093095D02*
X0117700Y0093095D01*
X0120168Y0093095D02*
X0145939Y0093095D01*
X0146150Y0091497D02*
X0009500Y0091497D01*
X0009500Y0093095D02*
X0070939Y0093095D01*
X0071085Y0092950D02*
X0068800Y0095235D01*
X0068800Y0098465D01*
X0071085Y0100750D01*
X0074315Y0100750D01*
X0076600Y0098465D01*
X0076600Y0095235D01*
X0074315Y0092950D01*
X0071085Y0092950D01*
X0069341Y0094694D02*
X0009500Y0094694D01*
X0009500Y0096292D02*
X0068800Y0096292D01*
X0068800Y0097891D02*
X0009500Y0097891D01*
X0009500Y0099489D02*
X0069824Y0099489D01*
X0075576Y0099489D02*
X0084824Y0099489D01*
X0083800Y0098465D02*
X0083800Y0095235D01*
X0086085Y0092950D01*
X0089315Y0092950D01*
X0091600Y0095235D01*
X0091600Y0098465D01*
X0089315Y0100750D01*
X0086085Y0100750D01*
X0083800Y0098465D01*
X0083800Y0097891D02*
X0076600Y0097891D01*
X0076600Y0096292D02*
X0083800Y0096292D01*
X0084341Y0094694D02*
X0076059Y0094694D01*
X0074461Y0093095D02*
X0085939Y0093095D01*
X0089461Y0093095D02*
X0115232Y0093095D01*
X0113634Y0094694D02*
X0091059Y0094694D01*
X0091600Y0096292D02*
X0113300Y0096292D01*
X0113300Y0097891D02*
X0091600Y0097891D01*
X0090576Y0099489D02*
X0114117Y0099489D01*
X0115715Y0101088D02*
X0009500Y0101088D01*
X0009500Y0089898D02*
X0146150Y0089898D01*
X0146150Y0088300D02*
X0009500Y0088300D01*
X0009500Y0086701D02*
X0146150Y0086701D01*
X0146150Y0085103D02*
X0009500Y0085103D01*
X0009500Y0083504D02*
X0146150Y0083504D01*
X0146150Y0081906D02*
X0009500Y0081906D01*
X0009500Y0080307D02*
X0146150Y0080307D01*
X0146150Y0078709D02*
X0009500Y0078709D01*
X0009500Y0077110D02*
X0146150Y0077110D01*
X0146150Y0075512D02*
X0009500Y0075512D01*
X0009500Y0073913D02*
X0146150Y0073913D01*
X0146150Y0072315D02*
X0009500Y0072315D01*
X0009500Y0070716D02*
X0071051Y0070716D01*
X0071085Y0070750D02*
X0068800Y0068465D01*
X0068800Y0065235D01*
X0071085Y0062950D01*
X0074315Y0062950D01*
X0076600Y0065235D01*
X0076600Y0068465D01*
X0074315Y0070750D01*
X0071085Y0070750D01*
X0069452Y0069118D02*
X0009500Y0069118D01*
X0009500Y0067519D02*
X0068800Y0067519D01*
X0068800Y0065920D02*
X0009500Y0065920D01*
X0009500Y0064322D02*
X0054657Y0064322D01*
X0053800Y0063465D02*
X0056085Y0065750D01*
X0059315Y0065750D01*
X0061600Y0063465D01*
X0061600Y0060235D01*
X0059315Y0057950D01*
X0056085Y0057950D01*
X0053800Y0060235D01*
X0053800Y0063465D01*
X0053800Y0062723D02*
X0009500Y0062723D01*
X0009500Y0061125D02*
X0053800Y0061125D01*
X0054508Y0059526D02*
X0009500Y0059526D01*
X0009500Y0057928D02*
X0086150Y0057928D01*
X0086150Y0059526D02*
X0060892Y0059526D01*
X0061600Y0061125D02*
X0086150Y0061125D01*
X0086150Y0062723D02*
X0061600Y0062723D01*
X0060743Y0064322D02*
X0069713Y0064322D01*
X0075687Y0064322D02*
X0084713Y0064322D01*
X0083800Y0065235D02*
X0086085Y0062950D01*
X0086150Y0062950D01*
X0086150Y0038708D01*
X0087058Y0037800D01*
X0098800Y0037800D01*
X0098800Y0037735D01*
X0101085Y0035450D01*
X0104315Y0035450D01*
X0106600Y0037735D01*
X0106600Y0040965D01*
X0104315Y0043250D01*
X0101085Y0043250D01*
X0098800Y0040965D01*
X0098800Y0040900D01*
X0089250Y0040900D01*
X0089250Y0062950D01*
X0089315Y0062950D01*
X0091600Y0065235D01*
X0091600Y0068465D01*
X0089315Y0070750D01*
X0086085Y0070750D01*
X0083800Y0068465D01*
X0083800Y0065235D01*
X0083800Y0065920D02*
X0076600Y0065920D01*
X0076600Y0067519D02*
X0083800Y0067519D01*
X0084452Y0069118D02*
X0075948Y0069118D01*
X0074349Y0070716D02*
X0086051Y0070716D01*
X0089349Y0070716D02*
X0146150Y0070716D01*
X0146150Y0069118D02*
X0090948Y0069118D01*
X0091600Y0067519D02*
X0146150Y0067519D01*
X0146150Y0065920D02*
X0091600Y0065920D01*
X0090687Y0064322D02*
X0139657Y0064322D01*
X0138800Y0062723D02*
X0089250Y0062723D01*
X0089250Y0061125D02*
X0138800Y0061125D01*
X0139508Y0059526D02*
X0138039Y0059526D01*
X0139100Y0058465D02*
X0136815Y0060750D01*
X0133585Y0060750D01*
X0131300Y0058465D01*
X0131300Y0055235D01*
X0133585Y0052950D01*
X0136815Y0052950D01*
X0139100Y0055235D01*
X0139100Y0058465D01*
X0139100Y0057928D02*
X0146150Y0057928D01*
X0146150Y0059526D02*
X0145892Y0059526D01*
X0144987Y0056329D02*
X0139100Y0056329D01*
X0138596Y0054731D02*
X0140065Y0054731D01*
X0138800Y0053132D02*
X0136998Y0053132D01*
X0138800Y0051534D02*
X0089250Y0051534D01*
X0089250Y0053132D02*
X0133402Y0053132D01*
X0131804Y0054731D02*
X0089250Y0054731D01*
X0089250Y0056329D02*
X0131300Y0056329D01*
X0131300Y0057928D02*
X0089250Y0057928D01*
X0089250Y0059526D02*
X0132361Y0059526D01*
X0139099Y0049935D02*
X0110130Y0049935D01*
X0109315Y0050750D02*
X0106085Y0050750D01*
X0103800Y0048465D01*
X0103800Y0045235D01*
X0106085Y0042950D01*
X0109315Y0042950D01*
X0111600Y0045235D01*
X0111600Y0048465D01*
X0109315Y0050750D01*
X0111600Y0048337D02*
X0140698Y0048337D01*
X0144702Y0048337D02*
X0235815Y0048337D01*
X0235815Y0049935D02*
X0213774Y0049935D01*
X0214026Y0050040D02*
X0215235Y0051249D01*
X0215890Y0052830D01*
X0215890Y0054540D01*
X0215235Y0056121D01*
X0214026Y0057330D01*
X0212445Y0057985D01*
X0204735Y0057985D01*
X0203154Y0057330D01*
X0201945Y0056121D01*
X0201290Y0054540D01*
X0201290Y0052830D01*
X0201945Y0051249D01*
X0203154Y0050040D01*
X0204735Y0049385D01*
X0212445Y0049385D01*
X0214026Y0050040D01*
X0215353Y0051534D02*
X0235815Y0051534D01*
X0235815Y0053132D02*
X0215890Y0053132D01*
X0215811Y0054731D02*
X0235815Y0054731D01*
X0235815Y0056329D02*
X0215027Y0056329D01*
X0212583Y0057928D02*
X0235815Y0057928D01*
X0235815Y0059526D02*
X0212787Y0059526D01*
X0212445Y0059385D02*
X0214026Y0060040D01*
X0215235Y0061249D01*
X0215890Y0062830D01*
X0215890Y0064540D01*
X0215235Y0066121D01*
X0214026Y0067330D01*
X0212445Y0067985D01*
X0204735Y0067985D01*
X0203154Y0067330D01*
X0201945Y0066121D01*
X0201290Y0064540D01*
X0201290Y0062830D01*
X0201945Y0061249D01*
X0203154Y0060040D01*
X0204735Y0059385D01*
X0212445Y0059385D01*
X0215111Y0061125D02*
X0235815Y0061125D01*
X0235815Y0062723D02*
X0215846Y0062723D01*
X0215890Y0064322D02*
X0235815Y0064322D01*
X0235815Y0065920D02*
X0215318Y0065920D01*
X0213570Y0067519D02*
X0235815Y0067519D01*
X0235815Y0069118D02*
X0149250Y0069118D01*
X0149250Y0070716D02*
X0235815Y0070716D01*
X0235815Y0072315D02*
X0149250Y0072315D01*
X0149250Y0073913D02*
X0235815Y0073913D01*
X0235815Y0075512D02*
X0149250Y0075512D01*
X0149250Y0077110D02*
X0235815Y0077110D01*
X0235815Y0078709D02*
X0220074Y0078709D01*
X0219315Y0077950D02*
X0221600Y0080235D01*
X0221600Y0083465D01*
X0219315Y0085750D01*
X0216085Y0085750D01*
X0213800Y0083465D01*
X0213800Y0080235D01*
X0216085Y0077950D01*
X0219315Y0077950D01*
X0221600Y0080307D02*
X0235815Y0080307D01*
X0235815Y0081906D02*
X0221600Y0081906D01*
X0221561Y0083504D02*
X0235815Y0083504D01*
X0235815Y0085103D02*
X0219963Y0085103D01*
X0215437Y0085103D02*
X0189963Y0085103D01*
X0189315Y0085750D02*
X0186085Y0085750D01*
X0183800Y0083465D01*
X0183800Y0080235D01*
X0186085Y0077950D01*
X0189315Y0077950D01*
X0191600Y0080235D01*
X0191600Y0083465D01*
X0189315Y0085750D01*
X0191561Y0083504D02*
X0213839Y0083504D01*
X0213800Y0081906D02*
X0191600Y0081906D01*
X0191600Y0080307D02*
X0213800Y0080307D01*
X0215326Y0078709D02*
X0190074Y0078709D01*
X0185326Y0078709D02*
X0149250Y0078709D01*
X0149250Y0080307D02*
X0183800Y0080307D01*
X0183800Y0081906D02*
X0149250Y0081906D01*
X0149250Y0083504D02*
X0170530Y0083504D01*
X0171085Y0082950D02*
X0174315Y0082950D01*
X0176600Y0085235D01*
X0176600Y0088465D01*
X0174315Y0090750D01*
X0171085Y0090750D01*
X0168800Y0088465D01*
X0168800Y0085235D01*
X0171085Y0082950D01*
X0168932Y0085103D02*
X0149250Y0085103D01*
X0149250Y0086701D02*
X0168800Y0086701D01*
X0168800Y0088300D02*
X0149250Y0088300D01*
X0149250Y0089898D02*
X0170233Y0089898D01*
X0175167Y0089898D02*
X0235815Y0089898D01*
X0235815Y0088300D02*
X0176600Y0088300D01*
X0176600Y0086701D02*
X0235815Y0086701D01*
X0235815Y0091497D02*
X0149250Y0091497D01*
X0149461Y0093095D02*
X0235815Y0093095D01*
X0235815Y0094694D02*
X0151059Y0094694D01*
X0151600Y0096292D02*
X0235815Y0096292D01*
X0235815Y0097891D02*
X0151600Y0097891D01*
X0152531Y0099489D02*
X0194545Y0099489D01*
X0193800Y0100235D02*
X0196085Y0097950D01*
X0199315Y0097950D01*
X0201600Y0100235D01*
X0201600Y0103465D01*
X0199315Y0105750D01*
X0196085Y0105750D01*
X0193800Y0103465D01*
X0193800Y0100235D01*
X0193800Y0101088D02*
X0154130Y0101088D01*
X0155728Y0102686D02*
X0193800Y0102686D01*
X0194619Y0104285D02*
X0156750Y0104285D01*
X0156750Y0105883D02*
X0200651Y0105883D01*
X0201085Y0105450D02*
X0198800Y0107735D01*
X0198800Y0110965D01*
X0201085Y0113250D01*
X0204315Y0113250D01*
X0206150Y0111415D01*
X0206150Y0127950D01*
X0206085Y0127950D01*
X0203800Y0130235D01*
X0203800Y0133465D01*
X0206085Y0135750D01*
X0209315Y0135750D01*
X0211600Y0133465D01*
X0211600Y0130235D01*
X0209315Y0127950D01*
X0209250Y0127950D01*
X0209250Y0105750D01*
X0209315Y0105750D01*
X0211600Y0103465D01*
X0211600Y0100235D01*
X0209315Y0097950D01*
X0206085Y0097950D01*
X0203800Y0100235D01*
X0203800Y0103465D01*
X0206085Y0105750D01*
X0206150Y0105750D01*
X0206150Y0107285D01*
X0204315Y0105450D01*
X0201085Y0105450D01*
X0200781Y0104285D02*
X0204619Y0104285D01*
X0204749Y0105883D02*
X0206150Y0105883D01*
X0209250Y0105883D02*
X0235815Y0105883D01*
X0235815Y0104285D02*
X0210781Y0104285D01*
X0211600Y0102686D02*
X0235815Y0102686D01*
X0235815Y0101088D02*
X0211600Y0101088D01*
X0210855Y0099489D02*
X0235815Y0099489D01*
X0235815Y0107482D02*
X0209250Y0107482D01*
X0209250Y0109080D02*
X0235815Y0109080D01*
X0235815Y0110679D02*
X0209250Y0110679D01*
X0209250Y0112277D02*
X0235815Y0112277D01*
X0235815Y0113876D02*
X0209250Y0113876D01*
X0209250Y0115474D02*
X0235815Y0115474D01*
X0235815Y0117073D02*
X0209250Y0117073D01*
X0209250Y0118671D02*
X0235815Y0118671D01*
X0235815Y0120270D02*
X0209250Y0120270D01*
X0209250Y0121868D02*
X0235815Y0121868D01*
X0235815Y0123467D02*
X0209250Y0123467D01*
X0209250Y0125065D02*
X0235815Y0125065D01*
X0235815Y0126664D02*
X0209250Y0126664D01*
X0209628Y0128262D02*
X0235815Y0128262D01*
X0235815Y0129861D02*
X0211226Y0129861D01*
X0211600Y0131459D02*
X0235815Y0131459D01*
X0235815Y0133058D02*
X0211600Y0133058D01*
X0210409Y0134656D02*
X0235815Y0134656D01*
X0235815Y0136255D02*
X0205120Y0136255D01*
X0204315Y0135450D02*
X0206600Y0137735D01*
X0206600Y0140965D01*
X0204315Y0143250D01*
X0201085Y0143250D01*
X0198800Y0140965D01*
X0198800Y0137735D01*
X0201085Y0135450D01*
X0204315Y0135450D01*
X0204991Y0134656D02*
X0200409Y0134656D01*
X0200280Y0136255D02*
X0196750Y0136255D01*
X0196750Y0137853D02*
X0198800Y0137853D01*
X0198800Y0139452D02*
X0196750Y0139452D01*
X0196750Y0141051D02*
X0198885Y0141051D01*
X0200484Y0142649D02*
X0196750Y0142649D01*
X0197290Y0144248D02*
X0235815Y0144248D01*
X0235815Y0145846D02*
X0198888Y0145846D01*
X0200487Y0147445D02*
X0235815Y0147445D01*
X0235815Y0149043D02*
X0202085Y0149043D01*
X0203684Y0150642D02*
X0235815Y0150642D01*
X0235815Y0152240D02*
X0205282Y0152240D01*
X0202497Y0153839D02*
X0195204Y0153839D01*
X0194315Y0152950D02*
X0191085Y0152950D01*
X0188800Y0155235D01*
X0188800Y0158465D01*
X0191085Y0160750D01*
X0194315Y0160750D01*
X0196600Y0158465D01*
X0196600Y0155235D01*
X0194315Y0152950D01*
X0196600Y0155437D02*
X0203800Y0155437D01*
X0203800Y0157036D02*
X0196600Y0157036D01*
X0196431Y0158634D02*
X0203969Y0158634D01*
X0205567Y0160233D02*
X0194833Y0160233D01*
X0190567Y0160233D02*
X0184833Y0160233D01*
X0184703Y0161831D02*
X0064529Y0161831D01*
X0065385Y0160233D02*
X0180567Y0160233D01*
X0185204Y0153839D02*
X0190196Y0153839D01*
X0188800Y0155437D02*
X0186600Y0155437D01*
X0186600Y0157036D02*
X0188800Y0157036D01*
X0188969Y0158634D02*
X0186431Y0158634D01*
X0180282Y0152240D02*
X0200898Y0152240D01*
X0199300Y0150642D02*
X0178684Y0150642D01*
X0177085Y0149043D02*
X0197701Y0149043D01*
X0196103Y0147445D02*
X0175487Y0147445D01*
X0173888Y0145846D02*
X0194504Y0145846D01*
X0193650Y0144248D02*
X0172290Y0144248D01*
X0170691Y0142649D02*
X0175484Y0142649D01*
X0176085Y0143250D02*
X0173800Y0140965D01*
X0173800Y0137735D01*
X0176085Y0135450D01*
X0179315Y0135450D01*
X0181600Y0137735D01*
X0181600Y0140965D01*
X0179315Y0143250D01*
X0176085Y0143250D01*
X0173885Y0141051D02*
X0169093Y0141051D01*
X0167494Y0139452D02*
X0173800Y0139452D01*
X0173800Y0137853D02*
X0165896Y0137853D01*
X0164297Y0136255D02*
X0175280Y0136255D01*
X0174315Y0135750D02*
X0171085Y0135750D01*
X0168800Y0133465D01*
X0168800Y0130235D01*
X0171085Y0127950D01*
X0174315Y0127950D01*
X0176600Y0130235D01*
X0176600Y0133465D01*
X0174315Y0135750D01*
X0175409Y0134656D02*
X0179991Y0134656D01*
X0181085Y0135750D02*
X0178800Y0133465D01*
X0178800Y0130235D01*
X0181085Y0127950D01*
X0184315Y0127950D01*
X0186600Y0130235D01*
X0186600Y0133465D01*
X0184315Y0135750D01*
X0181085Y0135750D01*
X0180120Y0136255D02*
X0193650Y0136255D01*
X0193650Y0137853D02*
X0181600Y0137853D01*
X0181600Y0139452D02*
X0193650Y0139452D01*
X0193650Y0141051D02*
X0181515Y0141051D01*
X0179916Y0142649D02*
X0193650Y0142649D01*
X0193650Y0134656D02*
X0185409Y0134656D01*
X0186600Y0133058D02*
X0193650Y0133058D01*
X0193650Y0131459D02*
X0186600Y0131459D01*
X0186226Y0129861D02*
X0193519Y0129861D01*
X0191920Y0128262D02*
X0184628Y0128262D01*
X0180772Y0128262D02*
X0174628Y0128262D01*
X0176226Y0129861D02*
X0179174Y0129861D01*
X0178800Y0131459D02*
X0176600Y0131459D01*
X0176600Y0133058D02*
X0178800Y0133058D01*
X0169991Y0134656D02*
X0162698Y0134656D01*
X0161100Y0133058D02*
X0168800Y0133058D01*
X0168800Y0131459D02*
X0159501Y0131459D01*
X0157903Y0129861D02*
X0169174Y0129861D01*
X0170772Y0128262D02*
X0156750Y0128262D01*
X0156750Y0126664D02*
X0190322Y0126664D01*
X0188723Y0125065D02*
X0156750Y0125065D01*
X0156750Y0123467D02*
X0187125Y0123467D01*
X0185526Y0121868D02*
X0156750Y0121868D01*
X0156750Y0120270D02*
X0170604Y0120270D01*
X0169006Y0118671D02*
X0156750Y0118671D01*
X0156750Y0117073D02*
X0168800Y0117073D01*
X0168800Y0115474D02*
X0156750Y0115474D01*
X0156750Y0113876D02*
X0170159Y0113876D01*
X0175241Y0113876D02*
X0206150Y0113876D01*
X0206150Y0115474D02*
X0183516Y0115474D01*
X0185115Y0117073D02*
X0206150Y0117073D01*
X0206150Y0118671D02*
X0186713Y0118671D01*
X0188312Y0120270D02*
X0206150Y0120270D01*
X0206150Y0121868D02*
X0189910Y0121868D01*
X0191509Y0123467D02*
X0206150Y0123467D01*
X0206150Y0125065D02*
X0193107Y0125065D01*
X0194706Y0126664D02*
X0206150Y0126664D01*
X0205772Y0128262D02*
X0199628Y0128262D01*
X0201226Y0129861D02*
X0204174Y0129861D01*
X0203800Y0131459D02*
X0201600Y0131459D01*
X0201600Y0133058D02*
X0203800Y0133058D01*
X0206600Y0137853D02*
X0235815Y0137853D01*
X0235815Y0139452D02*
X0206600Y0139452D01*
X0206515Y0141051D02*
X0235815Y0141051D01*
X0235815Y0142649D02*
X0204916Y0142649D01*
X0183928Y0120270D02*
X0174796Y0120270D01*
X0176394Y0118671D02*
X0182329Y0118671D01*
X0198800Y0110679D02*
X0156750Y0110679D01*
X0156750Y0112277D02*
X0200112Y0112277D01*
X0198800Y0109080D02*
X0156750Y0109080D01*
X0156750Y0107482D02*
X0199053Y0107482D01*
X0201600Y0102686D02*
X0203800Y0102686D01*
X0203800Y0101088D02*
X0201600Y0101088D01*
X0200855Y0099489D02*
X0204545Y0099489D01*
X0205288Y0112277D02*
X0206150Y0112277D01*
X0185437Y0085103D02*
X0176468Y0085103D01*
X0174870Y0083504D02*
X0183839Y0083504D01*
X0201862Y0065920D02*
X0149250Y0065920D01*
X0149250Y0064322D02*
X0201290Y0064322D01*
X0201334Y0062723D02*
X0149250Y0062723D01*
X0149250Y0061125D02*
X0202069Y0061125D01*
X0204393Y0059526D02*
X0149250Y0059526D01*
X0149250Y0057928D02*
X0204597Y0057928D01*
X0202153Y0056329D02*
X0149250Y0056329D01*
X0147773Y0054731D02*
X0201369Y0054731D01*
X0201290Y0053132D02*
X0146600Y0053132D01*
X0146600Y0051534D02*
X0201827Y0051534D01*
X0203406Y0049935D02*
X0146301Y0049935D01*
X0146085Y0040750D02*
X0143800Y0038465D01*
X0143800Y0035235D01*
X0146085Y0032950D01*
X0149315Y0032950D01*
X0151600Y0035235D01*
X0151600Y0038465D01*
X0149315Y0040750D01*
X0146085Y0040750D01*
X0145679Y0040344D02*
X0129721Y0040344D01*
X0129315Y0040750D02*
X0126085Y0040750D01*
X0123800Y0038465D01*
X0123800Y0035235D01*
X0126085Y0032950D01*
X0129315Y0032950D01*
X0131600Y0035235D01*
X0131600Y0038465D01*
X0129315Y0040750D01*
X0131320Y0038746D02*
X0144080Y0038746D01*
X0143800Y0037147D02*
X0131600Y0037147D01*
X0131600Y0035549D02*
X0143800Y0035549D01*
X0145084Y0033950D02*
X0130316Y0033950D01*
X0129315Y0030750D02*
X0126085Y0030750D01*
X0123800Y0028465D01*
X0123800Y0025235D01*
X0126085Y0022950D01*
X0129315Y0022950D01*
X0131600Y0025235D01*
X0131600Y0028465D01*
X0129315Y0030750D01*
X0130911Y0029155D02*
X0235815Y0029155D01*
X0235815Y0030753D02*
X0124100Y0030753D01*
X0124100Y0030235D02*
X0121815Y0027950D01*
X0118585Y0027950D01*
X0116300Y0030235D01*
X0116300Y0033465D01*
X0118585Y0035750D01*
X0121815Y0035750D01*
X0124100Y0033465D01*
X0124100Y0030235D01*
X0124489Y0029155D02*
X0123020Y0029155D01*
X0123800Y0027556D02*
X0009500Y0027556D01*
X0009500Y0025958D02*
X0123800Y0025958D01*
X0124675Y0024359D02*
X0009500Y0024359D01*
X0009500Y0022761D02*
X0015949Y0022761D01*
X0016481Y0022981D02*
X0014227Y0022047D01*
X0012503Y0020323D01*
X0011569Y0018069D01*
X0011569Y0015631D01*
X0012503Y0013377D01*
X0014227Y0011653D01*
X0016481Y0010719D01*
X0018919Y0010719D01*
X0021173Y0011653D01*
X0022897Y0013377D01*
X0023831Y0015631D01*
X0023831Y0018069D01*
X0022897Y0020323D01*
X0021173Y0022047D01*
X0018919Y0022981D01*
X0016481Y0022981D01*
X0019451Y0022761D02*
X0225949Y0022761D01*
X0226481Y0022981D02*
X0224227Y0022047D01*
X0222503Y0020323D01*
X0221569Y0018069D01*
X0221569Y0015631D01*
X0222503Y0013377D01*
X0224227Y0011653D01*
X0226481Y0010719D01*
X0228919Y0010719D01*
X0231173Y0011653D01*
X0232897Y0013377D01*
X0233831Y0015631D01*
X0233831Y0018069D01*
X0232897Y0020323D01*
X0231173Y0022047D01*
X0228919Y0022981D01*
X0226481Y0022981D01*
X0229451Y0022761D02*
X0235815Y0022761D01*
X0235815Y0024359D02*
X0130725Y0024359D01*
X0131600Y0025958D02*
X0235815Y0025958D01*
X0235815Y0027556D02*
X0131600Y0027556D01*
X0125084Y0033950D02*
X0123615Y0033950D01*
X0123800Y0035549D02*
X0122017Y0035549D01*
X0123800Y0037147D02*
X0106013Y0037147D01*
X0106600Y0038746D02*
X0124080Y0038746D01*
X0125679Y0040344D02*
X0106600Y0040344D01*
X0105623Y0041943D02*
X0235815Y0041943D01*
X0235815Y0043541D02*
X0109907Y0043541D01*
X0111505Y0045140D02*
X0235815Y0045140D01*
X0235815Y0046738D02*
X0111600Y0046738D01*
X0105493Y0043541D02*
X0099907Y0043541D01*
X0099315Y0042950D02*
X0096085Y0042950D01*
X0093800Y0045235D01*
X0093800Y0048465D01*
X0096085Y0050750D01*
X0099315Y0050750D01*
X0101600Y0048465D01*
X0101600Y0045235D01*
X0099315Y0042950D01*
X0099777Y0041943D02*
X0089250Y0041943D01*
X0089250Y0043541D02*
X0095493Y0043541D01*
X0093895Y0045140D02*
X0089250Y0045140D01*
X0089250Y0046738D02*
X0093800Y0046738D01*
X0093800Y0048337D02*
X0089250Y0048337D01*
X0089250Y0049935D02*
X0095270Y0049935D01*
X0100130Y0049935D02*
X0105270Y0049935D01*
X0103800Y0048337D02*
X0101600Y0048337D01*
X0101600Y0046738D02*
X0103800Y0046738D01*
X0103895Y0045140D02*
X0101505Y0045140D01*
X0099387Y0037147D02*
X0009500Y0037147D01*
X0009500Y0035549D02*
X0055883Y0035549D01*
X0056085Y0035750D02*
X0053800Y0033465D01*
X0053800Y0030235D01*
X0056085Y0027950D01*
X0059315Y0027950D01*
X0061600Y0030235D01*
X0061600Y0033465D01*
X0059315Y0035750D01*
X0056085Y0035750D01*
X0054285Y0033950D02*
X0009500Y0033950D01*
X0009500Y0032352D02*
X0053800Y0032352D01*
X0053800Y0030753D02*
X0009500Y0030753D01*
X0009500Y0029155D02*
X0054880Y0029155D01*
X0060520Y0029155D02*
X0117380Y0029155D01*
X0116300Y0030753D02*
X0061600Y0030753D01*
X0061600Y0032352D02*
X0116300Y0032352D01*
X0116785Y0033950D02*
X0061115Y0033950D01*
X0059517Y0035549D02*
X0100986Y0035549D01*
X0104414Y0035549D02*
X0118383Y0035549D01*
X0124100Y0032352D02*
X0235815Y0032352D01*
X0235815Y0033950D02*
X0181023Y0033950D01*
X0182100Y0035027D02*
X0179523Y0032450D01*
X0177700Y0032450D01*
X0177700Y0036850D01*
X0182100Y0036850D01*
X0182100Y0038673D01*
X0179523Y0041250D01*
X0177700Y0041250D01*
X0177700Y0036850D01*
X0177700Y0036850D01*
X0177700Y0036850D01*
X0182100Y0036850D01*
X0182100Y0035027D01*
X0182100Y0035549D02*
X0235815Y0035549D01*
X0235815Y0037147D02*
X0182100Y0037147D01*
X0182027Y0038746D02*
X0235815Y0038746D01*
X0235815Y0040344D02*
X0180428Y0040344D01*
X0177700Y0040344D02*
X0177700Y0040344D01*
X0177700Y0041250D02*
X0175877Y0041250D01*
X0173300Y0038673D01*
X0173300Y0036850D01*
X0177700Y0036850D01*
X0177700Y0036850D01*
X0177700Y0036850D01*
X0177700Y0041250D01*
X0177700Y0038746D02*
X0177700Y0038746D01*
X0177700Y0037147D02*
X0177700Y0037147D01*
X0177700Y0036850D02*
X0173300Y0036850D01*
X0173300Y0035027D01*
X0175877Y0032450D01*
X0177700Y0032450D01*
X0177700Y0036850D01*
X0177700Y0035549D02*
X0177700Y0035549D01*
X0177700Y0033950D02*
X0177700Y0033950D01*
X0174377Y0033950D02*
X0150316Y0033950D01*
X0151600Y0035549D02*
X0173300Y0035549D01*
X0173300Y0037147D02*
X0151600Y0037147D01*
X0151320Y0038746D02*
X0173373Y0038746D01*
X0174972Y0040344D02*
X0149721Y0040344D01*
X0146150Y0064322D02*
X0145743Y0064322D01*
X0149250Y0067519D02*
X0203610Y0067519D01*
X0223342Y0021162D02*
X0022058Y0021162D01*
X0023212Y0019564D02*
X0222188Y0019564D01*
X0221569Y0017965D02*
X0023831Y0017965D01*
X0023831Y0016367D02*
X0221569Y0016367D01*
X0221927Y0014768D02*
X0023473Y0014768D01*
X0022690Y0013170D02*
X0222710Y0013170D01*
X0224424Y0011571D02*
X0020976Y0011571D01*
X0014424Y0011571D02*
X0009500Y0011571D01*
X0009500Y0009973D02*
X0235815Y0009973D01*
X0235815Y0011571D02*
X0230976Y0011571D01*
X0232690Y0013170D02*
X0235815Y0013170D01*
X0235815Y0014768D02*
X0233473Y0014768D01*
X0233831Y0016367D02*
X0235815Y0016367D01*
X0235815Y0017965D02*
X0233831Y0017965D01*
X0233212Y0019564D02*
X0235815Y0019564D01*
X0235815Y0021162D02*
X0232058Y0021162D01*
X0144824Y0099489D02*
X0121283Y0099489D01*
X0122100Y0097891D02*
X0143800Y0097891D01*
X0143800Y0096292D02*
X0122100Y0096292D01*
X0121766Y0094694D02*
X0144341Y0094694D01*
X0160613Y0139452D02*
X0163110Y0139452D01*
X0181750Y0189006D02*
X0186150Y0189006D01*
X0186150Y0190604D02*
X0181750Y0190604D01*
X0181750Y0192203D02*
X0186150Y0192203D01*
X0186150Y0193801D02*
X0181750Y0193801D01*
X0181750Y0195400D02*
X0186150Y0195400D01*
X0186150Y0196998D02*
X0181750Y0196998D01*
X0181750Y0198597D02*
X0185438Y0198597D01*
X0183839Y0200195D02*
X0181750Y0200195D01*
X0181750Y0201794D02*
X0183800Y0201794D01*
X0183800Y0203392D02*
X0181750Y0203392D01*
X0181750Y0204991D02*
X0185326Y0204991D01*
X0181750Y0206589D02*
X0203800Y0206589D01*
X0203800Y0208188D02*
X0181750Y0208188D01*
X0181750Y0209787D02*
X0205121Y0209787D01*
X0204044Y0204991D02*
X0190074Y0204991D01*
X0178650Y0219378D02*
X0170743Y0219378D01*
X0171600Y0220976D02*
X0179634Y0220976D01*
X0181233Y0222575D02*
X0171600Y0222575D01*
X0170892Y0224173D02*
X0182831Y0224173D01*
X0184563Y0233764D02*
X0160130Y0233764D01*
X0161600Y0235363D02*
X0183300Y0235363D01*
X0183300Y0236961D02*
X0161600Y0236961D01*
X0161506Y0238560D02*
X0183300Y0238560D01*
X0184786Y0240158D02*
X0159907Y0240158D01*
X0156150Y0241757D02*
X0144250Y0241757D01*
X0144250Y0243355D02*
X0156150Y0243355D01*
X0156150Y0244954D02*
X0144250Y0244954D01*
X0144250Y0246552D02*
X0156150Y0246552D01*
X0155884Y0248151D02*
X0144250Y0248151D01*
X0144250Y0249749D02*
X0154285Y0249749D01*
X0153800Y0251348D02*
X0144250Y0251348D01*
X0144250Y0252946D02*
X0153800Y0252946D01*
X0154879Y0254545D02*
X0145910Y0254545D01*
X0146600Y0256143D02*
X0160391Y0256143D01*
X0158800Y0257742D02*
X0146600Y0257742D01*
X0145725Y0259340D02*
X0158800Y0259340D01*
X0155493Y0240158D02*
X0144250Y0240158D01*
X0144250Y0238560D02*
X0153894Y0238560D01*
X0153800Y0236961D02*
X0144250Y0236961D01*
X0144250Y0235363D02*
X0153800Y0235363D01*
X0155270Y0233764D02*
X0144250Y0233764D01*
X0144250Y0232166D02*
X0156150Y0232166D01*
X0156150Y0230567D02*
X0144250Y0230567D01*
X0144250Y0228969D02*
X0156150Y0228969D01*
X0156150Y0227370D02*
X0144250Y0227370D01*
X0144250Y0225772D02*
X0156150Y0225772D01*
X0156150Y0224173D02*
X0144250Y0224173D01*
X0144991Y0222575D02*
X0156150Y0222575D01*
X0156150Y0220976D02*
X0146589Y0220976D01*
X0146600Y0219378D02*
X0156150Y0219378D01*
X0156150Y0217779D02*
X0146600Y0217779D01*
X0146085Y0215750D02*
X0143800Y0213465D01*
X0143800Y0210235D01*
X0146085Y0207950D01*
X0149315Y0207950D01*
X0151600Y0210235D01*
X0151600Y0213465D01*
X0149315Y0215750D01*
X0146085Y0215750D01*
X0145046Y0216181D02*
X0156150Y0216181D01*
X0156150Y0214582D02*
X0150483Y0214582D01*
X0151600Y0212984D02*
X0156150Y0212984D01*
X0156150Y0211385D02*
X0151600Y0211385D01*
X0151152Y0209787D02*
X0156150Y0209787D01*
X0156150Y0208188D02*
X0149553Y0208188D01*
X0145847Y0208188D02*
X0139553Y0208188D01*
X0141152Y0209787D02*
X0144248Y0209787D01*
X0143800Y0211385D02*
X0141600Y0211385D01*
X0141600Y0212984D02*
X0143800Y0212984D01*
X0144917Y0214582D02*
X0140483Y0214582D01*
X0134917Y0214582D02*
X0125483Y0214582D01*
X0126600Y0213465D02*
X0124315Y0215750D01*
X0121085Y0215750D01*
X0118800Y0213465D01*
X0118800Y0210235D01*
X0121085Y0207950D01*
X0124315Y0207950D01*
X0126600Y0210235D01*
X0126600Y0213465D01*
X0126600Y0212984D02*
X0133800Y0212984D01*
X0133800Y0211385D02*
X0126600Y0211385D01*
X0126152Y0209787D02*
X0134248Y0209787D01*
X0135847Y0208188D02*
X0124553Y0208188D01*
X0120847Y0208188D02*
X0079553Y0208188D01*
X0081152Y0209787D02*
X0119248Y0209787D01*
X0118800Y0211385D02*
X0081600Y0211385D01*
X0081600Y0212984D02*
X0118800Y0212984D01*
X0119917Y0214582D02*
X0080483Y0214582D01*
X0079545Y0184210D02*
X0009500Y0184210D01*
X0009500Y0182612D02*
X0078800Y0182612D01*
X0085855Y0184210D02*
X0109545Y0184210D01*
X0108800Y0182612D02*
X0086600Y0182612D01*
X0086600Y0181013D02*
X0108800Y0181013D01*
X0109620Y0179415D02*
X0085780Y0179415D01*
X0058441Y0161831D02*
X0054529Y0161831D01*
X0055385Y0160975D02*
X0053100Y0163260D01*
X0049870Y0163260D01*
X0047585Y0160975D01*
X0047585Y0157745D01*
X0049870Y0155460D01*
X0053100Y0155460D01*
X0055385Y0157745D01*
X0055385Y0160975D01*
X0055385Y0160233D02*
X0057585Y0160233D01*
X0057585Y0158634D02*
X0055385Y0158634D01*
X0054676Y0157036D02*
X0058294Y0157036D01*
X0054400Y0163430D02*
X0009500Y0163430D01*
X0009500Y0165028D02*
X0052801Y0165028D01*
X0052585Y0166627D02*
X0009500Y0166627D01*
X0009500Y0168225D02*
X0052585Y0168225D01*
X0048441Y0161831D02*
X0009500Y0161831D01*
X0009500Y0160233D02*
X0047585Y0160233D01*
X0047585Y0158634D02*
X0009500Y0158634D01*
X0009500Y0157036D02*
X0048294Y0157036D01*
X0028800Y0195400D02*
X0009500Y0195400D01*
X0009500Y0196998D02*
X0028800Y0196998D01*
X0028932Y0198597D02*
X0009500Y0198597D01*
X0009500Y0200195D02*
X0030530Y0200195D01*
X0009500Y0201794D02*
X0153800Y0201794D01*
X0153800Y0203392D02*
X0009500Y0203392D01*
X0009500Y0204991D02*
X0155326Y0204991D01*
X0156150Y0206589D02*
X0009500Y0206589D01*
X0050521Y0254545D02*
X0109490Y0254545D01*
X0115910Y0254545D02*
X0124490Y0254545D01*
X0123800Y0255235D02*
X0126085Y0252950D01*
X0129315Y0252950D01*
X0131600Y0255235D01*
X0131600Y0258465D01*
X0129315Y0260750D01*
X0126085Y0260750D01*
X0123800Y0258465D01*
X0123800Y0255235D01*
X0123800Y0256143D02*
X0116600Y0256143D01*
X0116600Y0257742D02*
X0123800Y0257742D01*
X0124675Y0259340D02*
X0115725Y0259340D01*
X0103800Y0243355D02*
X0102100Y0243355D01*
X0102100Y0241757D02*
X0103800Y0241757D01*
X0103876Y0240158D02*
X0102100Y0240158D01*
X0100632Y0238560D02*
X0105475Y0238560D01*
X0130910Y0254545D02*
X0139490Y0254545D01*
X0138800Y0256143D02*
X0131600Y0256143D01*
X0131600Y0257742D02*
X0138800Y0257742D01*
X0139675Y0259340D02*
X0130725Y0259340D01*
X0041032Y0305697D02*
X0009500Y0305697D01*
X0009500Y0304099D02*
X0039433Y0304099D01*
X0038800Y0302500D02*
X0009500Y0302500D01*
X0009500Y0300902D02*
X0038800Y0300902D01*
X0012373Y0313690D02*
X0009500Y0313690D01*
X0009500Y0315288D02*
X0011711Y0315288D01*
X0011569Y0316887D02*
X0009500Y0316887D01*
X0009500Y0318485D02*
X0011742Y0318485D01*
X0012404Y0320084D02*
X0009500Y0320084D01*
X0009500Y0321682D02*
X0013862Y0321682D01*
X0030507Y0057010D02*
X0029761Y0056892D01*
X0029042Y0056658D01*
X0028369Y0056315D01*
X0027758Y0055871D01*
X0027224Y0055337D01*
X0026780Y0054726D01*
X0026437Y0054053D01*
X0026203Y0053334D01*
X0026085Y0052588D01*
X0026085Y0052410D01*
X0033685Y0052410D01*
X0033685Y0057010D01*
X0030507Y0057010D01*
X0028397Y0056329D02*
X0009500Y0056329D01*
X0009500Y0054731D02*
X0026783Y0054731D01*
X0026171Y0053132D02*
X0009500Y0053132D01*
X0009500Y0051534D02*
X0026132Y0051534D01*
X0026085Y0051832D02*
X0026203Y0051086D01*
X0026437Y0050367D01*
X0026780Y0049694D01*
X0027224Y0049083D01*
X0027758Y0048549D01*
X0028369Y0048105D01*
X0029042Y0047762D01*
X0029761Y0047528D01*
X0030507Y0047410D01*
X0033685Y0047410D01*
X0033685Y0052010D01*
X0034085Y0052010D01*
X0034085Y0052410D01*
X0041685Y0052410D01*
X0041685Y0052588D01*
X0041567Y0053334D01*
X0041333Y0054053D01*
X0040990Y0054726D01*
X0040546Y0055337D01*
X0040012Y0055871D01*
X0039401Y0056315D01*
X0038728Y0056658D01*
X0038009Y0056892D01*
X0037263Y0057010D01*
X0034085Y0057010D01*
X0034085Y0052410D01*
X0033685Y0052410D01*
X0033685Y0052010D01*
X0026085Y0052010D01*
X0026085Y0051832D01*
X0026657Y0049935D02*
X0009500Y0049935D01*
X0009500Y0048337D02*
X0028050Y0048337D01*
X0028449Y0045855D02*
X0027240Y0044646D01*
X0026585Y0043065D01*
X0026585Y0041355D01*
X0027240Y0039774D01*
X0028449Y0038565D01*
X0030030Y0037910D01*
X0037740Y0037910D01*
X0039321Y0038565D01*
X0040530Y0039774D01*
X0041185Y0041355D01*
X0041185Y0043065D01*
X0040530Y0044646D01*
X0039321Y0045855D01*
X0037740Y0046510D01*
X0030030Y0046510D01*
X0028449Y0045855D01*
X0027734Y0045140D02*
X0009500Y0045140D01*
X0009500Y0046738D02*
X0086150Y0046738D01*
X0086150Y0045140D02*
X0040036Y0045140D01*
X0040988Y0043541D02*
X0086150Y0043541D01*
X0086150Y0041943D02*
X0041185Y0041943D01*
X0040766Y0040344D02*
X0086150Y0040344D01*
X0086150Y0038746D02*
X0039502Y0038746D01*
X0038009Y0047528D02*
X0038728Y0047762D01*
X0039401Y0048105D01*
X0040012Y0048549D01*
X0040546Y0049083D01*
X0040990Y0049694D01*
X0041333Y0050367D01*
X0041567Y0051086D01*
X0041685Y0051832D01*
X0041685Y0052010D01*
X0034085Y0052010D01*
X0034085Y0047410D01*
X0037263Y0047410D01*
X0038009Y0047528D01*
X0039720Y0048337D02*
X0086150Y0048337D01*
X0086150Y0049935D02*
X0041113Y0049935D01*
X0041638Y0051534D02*
X0086150Y0051534D01*
X0086150Y0053132D02*
X0041599Y0053132D01*
X0040987Y0054731D02*
X0086150Y0054731D01*
X0086150Y0056329D02*
X0039373Y0056329D01*
X0034085Y0056329D02*
X0033685Y0056329D01*
X0033685Y0054731D02*
X0034085Y0054731D01*
X0034085Y0053132D02*
X0033685Y0053132D01*
X0033685Y0051534D02*
X0034085Y0051534D01*
X0034085Y0049935D02*
X0033685Y0049935D01*
X0033685Y0048337D02*
X0034085Y0048337D01*
X0027003Y0040344D02*
X0009500Y0040344D01*
X0009500Y0038746D02*
X0028268Y0038746D01*
X0026585Y0041943D02*
X0009500Y0041943D01*
X0009500Y0043541D02*
X0026782Y0043541D01*
X0013342Y0021162D02*
X0009500Y0021162D01*
X0009500Y0019564D02*
X0012188Y0019564D01*
X0011569Y0017965D02*
X0009500Y0017965D01*
X0009500Y0016367D02*
X0011569Y0016367D01*
X0011927Y0014768D02*
X0009500Y0014768D01*
X0009500Y0013170D02*
X0012710Y0013170D01*
D14*
X0087700Y0039350D02*
X0087700Y0066850D01*
X0087700Y0039350D02*
X0102700Y0039350D01*
X0142700Y0051850D02*
X0147700Y0056850D01*
X0147700Y0096850D01*
X0155200Y0104350D01*
X0155200Y0129350D01*
X0182700Y0156850D01*
X0187700Y0164350D02*
X0187700Y0201850D01*
X0180200Y0189350D02*
X0180200Y0219350D01*
X0207700Y0246850D01*
X0207700Y0251850D01*
X0180200Y0189350D02*
X0172700Y0181850D01*
X0157700Y0201850D02*
X0157700Y0236850D01*
X0157700Y0251850D01*
X0142700Y0256850D02*
X0142700Y0219350D01*
X0147700Y0151850D02*
X0147700Y0136850D01*
X0172700Y0116850D02*
X0182700Y0116850D01*
X0195200Y0129350D01*
X0195200Y0144350D01*
X0207700Y0156850D01*
X0217700Y0156850D02*
X0220200Y0159350D01*
X0220200Y0169350D01*
X0207700Y0181850D01*
X0207700Y0131850D02*
X0207700Y0101850D01*
X0195200Y0129350D02*
X0197700Y0131850D01*
M02*
